<svg width="150" height="150" viewBox="0 0 150 150" fill="none" xmlns="http://www.w3.org/2000/svg">
<rect width="150" height="150" rx="70" fill="#39A900"/>
<path d="M60.203 80.6664C60.203 80.6664 57.9945 77.9848 57.6632 77.3412C57.0007 76.1613 56.4485 74.8741 56.0068 73.4796C55.786 73.1578 54.5713 73.3724 54.1296 73.2651C52.3628 73.0506 50.2647 71.8706 49.05 70.5835C44.5226 65.4347 48.3875 57.4971 55.2339 57.4971V55.0299C49.823 54.2791 44.0809 53.85 39.0013 52.0265C33.9218 50.203 31.6028 46.556 37.6762 43.8743C42.9766 41.5145 49.4917 41.1927 55.2339 40.3346C57.1111 34.5422 60.6447 30.6807 66.7181 28.8571C72.3498 27.1409 76.8772 27.0336 82.6193 28.6426C88.9136 30.3589 92.7785 34.2204 94.6557 40.3346C100.287 41.1927 106.913 41.5145 112.213 43.8743C118.287 46.556 115.968 50.203 110.888 52.0265C105.809 53.85 99.9561 54.2791 94.6557 55.0299V57.4971C104.704 57.4971 105.698 71.8706 95.6495 73.2651C95.2078 73.2651 94.214 73.1578 93.8827 73.4796C93.441 74.7668 92.8889 76.054 92.2264 77.3412C91.7847 77.9848 89.6866 80.5592 89.6866 80.6664V82.919C93.9932 82.919 97.9685 82.8117 102.165 83.8844C113.318 86.8878 121.6 96.7563 122.372 108.019C122.483 110.379 122.593 114.884 122.372 117.137C121.931 120.033 119.281 122.285 116.299 122.5H33.9218C30.7194 122.393 27.9588 119.926 27.6275 116.815C27.4067 114.455 27.5171 110.486 27.6275 108.126C28.4005 95.7909 38.0075 85.2788 50.4856 83.2408C53.6879 82.7045 57.0007 82.919 60.203 82.919C60.0926 82.2754 60.3134 81.2027 60.203 80.6664ZM95.4287 43.8743C95.4287 45.2688 96.9746 48.4867 94.987 49.0231C92.4472 49.7739 92.5576 45.8051 92.2264 44.3034C91.2325 40.0128 89.797 35.9367 85.8217 33.5768C78.3128 29.1789 64.2887 29.8225 59.7613 38.082C57.8841 41.4072 57.8841 44.3034 57.0007 47.7359C56.4485 49.8812 53.6879 49.2376 53.6879 47.5214C53.6879 46.4487 54.24 45.0542 54.3505 43.8743C50.8168 44.1961 47.0624 44.6252 43.5288 45.4833C41.4307 46.0196 39.2222 46.556 37.4554 47.8432C37.4554 48.594 43.0871 50.0957 43.9705 50.3103C55.6756 52.9919 69.9204 53.0992 81.9568 52.6701C89.5761 52.4556 97.3059 52.0265 104.815 50.4175C107.355 49.8812 110.226 49.3449 112.213 47.7359C110.447 46.4487 108.238 45.9124 106.14 45.376C102.606 44.5179 98.8519 44.0889 95.3183 43.7671L95.4287 43.8743ZM58.657 55.459C58.657 55.459 58.4362 55.9953 58.4362 56.3171C58.1049 60.286 57.9945 69.7253 59.3196 73.2651C63.5158 85.2788 82.6193 86.566 89.024 76.1613C92.7785 70.2617 90.7908 62.5385 91.343 55.8881V55.459C91.343 55.459 90.1283 55.459 89.797 55.459C81.0734 55.8881 72.4602 56.2099 63.7366 55.7808C62.9636 55.7808 59.0987 55.2445 58.7675 55.459H58.657ZM55.3443 60.715C48.8292 61.1441 48.8292 69.9399 55.3443 70.2617V60.715ZM94.4349 70.2617C100.95 69.8326 100.95 61.1441 94.4349 60.715V70.2617ZM86.3738 83.4553C83.7236 84.7425 81.0734 85.9224 77.9815 86.137C73.454 86.4588 69.1475 86.137 65.0617 84.3134C64.62 84.0989 64.0679 83.6699 63.6262 83.5626C63.2949 83.5626 63.4053 83.9917 63.4053 84.3134C63.7366 92.3584 72.6811 96.3272 79.8587 93.431C83.834 91.822 86.4842 87.8532 86.3738 83.5626V83.4553ZM55.3443 86.0297C54.4609 86.0297 53.2462 86.0297 52.3628 86.137C52.1419 86.137 52.0315 86.137 52.0315 86.3515V99.7597L52.2524 100.296H55.1234L55.3443 100.081V85.9224V86.0297ZM58.4362 86.2442V100.189L58.657 100.403H91.0117V86.137H89.2449C88.0302 92.3584 82.8402 96.8635 76.2147 97.2926C68.1536 97.7216 61.9698 93.9674 60.203 86.137C59.7613 86.137 58.4362 85.9224 58.3258 86.3515L58.4362 86.2442ZM94.4349 86.0297V100.189L94.6557 100.403H97.5268V86.3515V86.137H94.4349V86.0297ZM48.8292 86.9951C39.3326 89.3549 32.1549 97.6144 31.0507 107.054C30.8298 109.092 30.4986 115.635 31.0507 117.351C31.382 118.102 31.8237 118.746 32.5967 119.067C32.8175 119.067 33.8113 119.497 33.9218 119.497H45.406L45.6268 119.282V104.158C45.6268 104.158 45.9581 103.192 46.0685 103.085C46.6207 102.012 47.7249 101.261 48.8292 100.618V87.1024V86.9951ZM100.95 86.9951V100.511C102.054 101.047 103.158 101.905 103.711 102.978C103.711 103.085 104.152 104.05 104.152 104.05V119.175L104.594 119.389C108.128 119.175 111.993 119.711 115.416 119.389C117.403 119.282 118.728 118.317 118.949 116.171C119.17 113.704 119.06 109.521 118.839 107.054C117.735 97.6144 110.557 89.2477 101.06 86.8878L100.95 86.9951ZM48.8292 104.694V119.282L49.05 119.497H100.84L101.06 119.282V104.694C101.06 104.694 99.8457 103.299 99.404 103.514H49.9334C49.9334 103.514 48.9396 104.265 48.8292 104.694Z" fill="white"/>
<path d="M63.184 111.451H86.2629C88.4714 111.665 88.5818 114.454 86.2629 114.669H62.8527C61.3068 113.811 61.5276 111.88 63.184 111.451Z" fill="white"/>
</svg>
