<svg width="150" height="150" viewBox="0 0 150 150" fill="none" xmlns="http://www.w3.org/2000/svg">
<rect width="150" height="150" rx="70" fill="#71277A"/>
<path d="M34.1648 119.983C32.0833 119.235 32.1428 117.927 32.1428 115.808C32.2617 111.946 32.4401 106.027 33.0348 102.288C34.7595 90.8867 49.3897 86.8369 58.4295 84.4694L58.9053 84.0955V81.0426C55.2775 77.9897 52.3633 73.8776 51.3523 69.0802C46.5351 67.4603 43.9183 62.2267 46.5351 57.367C44.2751 56.3078 40.0526 53.6287 40.7068 50.5135C41.361 47.3983 47.665 49.392 49.6871 48.6443C50.936 44.5323 51.7092 40.0463 53.077 35.9966C54.1475 32.7567 56.1696 30.2022 59.619 29.7661C65.7446 30.1399 72.4055 29.2677 78.4717 29.7661C81.3264 30.0153 83.4674 32.1337 84.6568 34.7505L88.582 48.582C90.6041 49.3297 97.6813 47.336 97.5623 51.1365C97.5623 53.7533 93.6966 56.557 91.4961 57.2423C93.3398 60.6068 92.7451 64.9058 89.7715 67.3357C88.8794 68.0833 87.7494 68.5194 86.7978 69.1425C85.6084 73.8776 82.8132 77.9274 79.3043 81.0426L79.1854 84.2824C86.6789 86.4631 94.7077 88.4568 100.655 94.0642C100.833 93.0051 100.536 91.8213 101.309 90.949C101.369 90.8867 102.142 90.3883 102.201 90.3883H105.413L105.651 90.139V80.5442H100.833C99.4654 80.5442 97.146 78.3635 96.5513 77.0551C94.7671 73.2546 96.4324 64.4073 95.8376 59.9837C96.0755 58.4261 97.5029 58.1769 98.3355 59.4853V74.2514C98.3355 75.4975 99.9412 77.8651 101.131 77.8651H105.591V59.4853C105.591 59.4853 106.186 58.8623 106.305 58.8C107.078 58.4261 108.089 58.9869 108.089 59.7968V77.8651H112.371C113.323 77.8651 115.107 75.8713 115.107 74.7499L115.226 59.5476C115.761 58.2392 117.486 58.4261 117.664 59.8591C117.248 64.5943 118.318 70.6378 117.605 75.2483C117.307 77.3044 114.809 80.5442 112.728 80.5442H108.089V90.3883H111.36C111.717 90.3883 112.966 91.4474 112.787 92.0705V118.612C112.43 119.422 111.955 119.609 111.241 120.045H34.1648V119.983ZM83.5863 40.7317C82.5753 37.6788 82.2779 33.7536 78.8285 32.5698C72.7029 32.6944 65.9825 31.9468 59.9163 32.4452C55.8127 32.7567 55.1585 37.3672 54.2665 40.7317H66.6367C67.5288 40.7317 68.183 43.0993 66.6367 43.3485H53.4339L52.066 48.8313H85.5489L84.1811 43.4108H71.8703C70.324 42.9746 70.9782 40.7317 71.8703 40.7317H83.5269H83.5863ZM94.7077 51.448H43.2641C44.0967 53.5041 46.7729 54.6256 48.7355 55.3109C58.4295 58.6753 78.4122 58.613 88.2252 55.6224C90.6041 54.8748 93.3993 53.8156 94.7671 51.448H94.7077ZM50.9955 58.6753L48.9734 58.2392C47.0108 61.1052 48.0813 64.5943 50.9955 66.0896V58.6753ZM86.9763 66.0896C89.1173 64.8435 90.1878 62.8497 89.7715 60.233C89.4146 58.2392 88.6415 58.1146 86.9763 58.6753V66.0896ZM84.4784 59.2361C74.2492 60.9183 63.7226 60.9183 53.5528 59.2361V67.7718C53.5528 70.887 57.4185 76.3075 59.619 78.3635C65.0904 83.4102 70.7403 84.2824 76.8065 79.6719C79.9585 77.242 84.4784 71.3854 84.4784 67.0864V59.2361ZM61.4031 82.9741V85.9024C61.4031 86.3385 62.2358 88.1453 62.5331 88.6437C66.5772 95.248 76.2118 92.4443 76.5686 84.5317C76.5686 84.2824 76.6875 82.8494 76.3307 83.0364C75.9739 83.161 75.3791 83.7217 74.8439 83.9709C70.7998 85.7777 67.7072 85.9647 63.6631 84.2201C62.89 83.9086 62.2358 83.4102 61.4626 83.0987L61.4031 82.9741ZM55.5154 87.9584V101.852H65.5067C66.6962 101.852 67.2314 104.095 65.8636 104.469L48.2003 104.594C48.2003 104.594 47.665 105.03 47.665 105.092V117.304H90.3662V105.217C90.3662 104.158 87.2736 104.407 86.5599 104.407C81.9806 104.531 77.1633 104.967 72.5839 104.594C70.3835 104.407 69.6103 102.787 71.8108 101.79L82.2779 101.915V87.8338L78.8285 86.9615C78.4122 87.7092 78.2338 88.5814 77.758 89.3914C73.3571 97.7402 61.3437 96.1203 59.2027 86.9615L55.5154 87.8338V87.9584ZM53.0175 88.8307L49.6276 89.8898V101.852H53.0175V88.8307ZM88.1657 89.8898L84.7758 88.8307V101.79C84.7758 102.288 85.9652 101.915 86.2031 101.852C86.8573 101.852 87.5115 101.852 88.1062 101.852V89.8898H88.1657ZM45.1077 117.366V104.594C45.1077 103.971 46.5351 102.475 47.1298 102.101V90.8867C41.6583 93.2543 35.7706 97.1171 35.3543 104.033L34.7001 117.304H45.1077V117.366ZM100.595 117.366V98.2386C98.276 94.6873 94.4103 92.5066 90.6635 90.949V102.164C91.1393 102.538 91.6151 102.725 92.0314 103.223C92.2693 103.534 92.864 104.718 92.864 104.967V117.366H100.595ZM110.17 93.0051H103.093V102.538H110.17V93.0051ZM110.17 105.217H103.093V109.453H110.17V105.217ZM110.17 112.07H103.093V117.366H110.17V112.07Z" fill="white"/>
<path d="M51.2333 109.771C51.7686 109.209 54.5043 109.271 55.2774 109.396C56.7642 109.646 56.7048 111.644 55.4558 111.956C54.9206 112.081 52.3633 112.081 51.828 111.956C50.8765 111.707 50.5791 110.458 51.2333 109.771Z" fill="white"/>
<path d="M82.5759 109.396C83.1111 109.271 85.6684 109.271 86.1442 109.396C87.1552 109.708 87.3337 111.27 86.3821 111.769C85.9658 112.019 82.7543 112.019 82.219 111.832C81.208 111.457 81.3269 109.583 82.5164 109.271L82.5759 109.396Z" fill="white"/>
</svg>
