<svg width="463" height="171" viewBox="0 0 463 171" fill="none" xmlns="http://www.w3.org/2000/svg">
<g clip-path="url(#clip0_497_573)" filter="url(#filter0_d_497_573)">
<path d="M176.529 113.573C170.465 113.573 165.522 111.958 161.686 108.729C157.85 105.5 155.946 100.175 155.946 92.7691V53.2702H176.3V88.0319C176.3 91.8217 177.056 94.4639 178.569 95.9584C180.082 97.453 182.243 98.2003 185.038 98.2003C187.834 98.2003 190.36 97.1594 192.399 95.0644C194.439 92.9827 195.452 89.6066 195.452 84.9494V53.2568H215.806V112.385H197.613L197.018 101.269C195.101 105.446 192.426 108.542 188.996 110.557C185.565 112.572 181.419 113.573 176.543 113.573H176.529Z" fill="white"/>
<path d="M245.83 28.1964V92.2888C245.83 94.891 246.263 96.7458 247.154 97.8534C248.032 98.961 249.504 99.5081 251.584 99.5081C252.786 99.5081 253.772 99.428 254.582 99.2679C255.379 99.1077 256.338 98.8809 257.459 98.5606L256.149 110.624C254.718 111.491 252.84 112.198 250.517 112.746C248.208 113.293 245.925 113.573 243.696 113.573C237.308 113.573 232.689 112.118 229.812 109.196C226.935 106.274 225.503 101.51 225.503 94.891V28.1964H245.857H245.83Z" fill="white"/>
<path d="M301.003 53.2569V67.5619H283.175V91.328C283.175 94.1703 283.877 96.1987 285.269 97.413C286.66 98.6407 288.605 99.2412 291.076 99.2412C292.994 99.2412 294.628 99.0276 295.979 98.5873C297.33 98.1603 298.613 97.5064 299.815 96.639L301.976 109.063C299.977 110.41 297.451 111.491 294.372 112.319C291.306 113.146 288.213 113.56 285.093 113.56C278.232 113.56 272.829 112.118 268.872 109.249C264.928 106.367 262.902 101.51 262.821 94.6507V67.5753H252.529V53.2702H262.821V40.0194L283.175 34.4548V53.2569H301.003Z" fill="white"/>
<path d="M315.969 46.3979C311.822 46.3979 308.81 45.624 306.933 44.0894C305.055 42.5548 304.124 40.1261 304.124 36.8167C304.124 33.5074 305.055 30.9586 306.933 29.424C308.81 27.8894 311.822 27.1155 315.969 27.1155C320.115 27.1155 323.032 27.8894 324.95 29.424C326.868 30.9586 327.827 33.4273 327.827 36.8167C327.827 40.2062 326.868 42.5548 324.95 44.0894C323.032 45.624 320.047 46.3979 315.969 46.3979ZM326.139 53.2569V112.385H305.785V53.2569H326.139Z" fill="white"/>
<path d="M374.856 53.2568H395.925L374.383 112.385H350.085L328.542 53.2568H349.963L362.295 98.307L374.856 53.2568Z" fill="white"/>
<path d="M430.515 74.9012C430.515 72.139 429.732 69.9505 428.179 68.3359C426.625 66.7212 424.532 65.9072 421.898 65.9072C419.265 65.9072 417.009 66.5611 415.132 67.8555C413.254 69.1632 411.958 71.4584 411.242 74.7678L394.008 70.7512C395.129 65.0799 398.073 60.5428 402.868 57.1534C407.649 53.7639 414.402 52.0692 423.1 52.0692C431.798 52.0692 438.673 53.9774 443.508 57.8072C448.33 61.637 450.748 67.2149 450.748 74.5409V96.1853C450.748 99.2545 452.139 100.802 454.935 100.802C456.366 100.802 457.528 100.642 458.406 100.335L457.204 111.811C454.813 112.919 451.896 113.466 448.465 113.466C444.71 113.466 441.482 112.732 438.768 111.278C436.053 109.823 434.216 107.595 433.257 104.592C431.582 107.661 428.922 109.93 425.302 111.398C421.669 112.852 417.819 113.586 413.754 113.586C407.609 113.586 402.719 112.185 399.086 109.383C395.453 106.58 393.643 102.551 393.643 97.2662C393.643 93.0094 394.94 89.4865 397.533 86.6842C400.126 83.8819 404.219 81.9336 409.797 80.8261L430.502 76.5693V74.9146L430.515 74.9012ZM413.754 95.358C413.754 97.0927 414.389 98.3871 415.672 99.2545C416.941 100.122 418.468 100.562 420.223 100.562C422.938 100.562 425.329 99.7482 427.409 98.1336C429.489 96.5189 430.515 93.9702 430.515 90.5006V87.1913L420.818 89.2063C418.427 89.6733 416.644 90.3672 415.496 91.2746C414.335 92.182 413.754 93.5431 413.754 95.358Z" fill="white"/>
<path d="M452.233 118.217H342.049C338.308 118.217 335.282 121.673 335.282 125.956C335.282 142.13 346.749 155.234 360.904 155.234H433.365C447.52 155.234 458.986 142.13 458.986 125.956C458.986 121.686 455.961 118.217 452.22 118.217H452.233Z" fill="#009E00"/>
<path d="M361.701 123.621C363.929 123.621 365.888 123.955 367.589 124.635C369.291 125.316 370.777 126.317 372.033 127.624L369.021 131.601C367.981 130.52 366.86 129.719 365.672 129.186C364.47 128.652 363.119 128.385 361.593 128.385C360.269 128.385 359.31 128.599 358.729 129.026C358.149 129.453 357.865 129.986 357.865 130.6C357.865 131.107 358.095 131.521 358.567 131.868C359.04 132.215 359.81 132.508 360.863 132.749L364.888 133.643C367.279 134.19 369.035 134.99 370.142 136.045C371.25 137.099 371.803 138.487 371.803 140.235C371.803 141.983 371.371 143.317 370.493 144.478C369.629 145.639 368.427 146.506 366.901 147.094C365.374 147.681 363.632 147.974 361.687 147.974C359.27 147.974 357.055 147.587 355.056 146.813C353.043 146.039 351.449 145.012 350.274 143.758L353.286 139.634C354.178 140.662 355.393 141.516 356.906 142.196C358.432 142.877 359.999 143.21 361.62 143.21C364.132 143.21 365.388 142.477 365.388 141.022C365.388 140.515 365.199 140.101 364.821 139.754C364.443 139.407 363.767 139.114 362.768 138.874L358.351 137.913C357.001 137.633 355.798 137.219 354.745 136.698C353.692 136.178 352.868 135.471 352.26 134.603C351.652 133.736 351.355 132.642 351.355 131.321C351.355 129.84 351.76 128.518 352.584 127.371C353.408 126.223 354.583 125.302 356.136 124.635C357.676 123.968 359.526 123.634 361.687 123.634L361.701 123.621Z" fill="white"/>
<path d="M374.315 147.614V123.981H392.941V128.745H380.542V133.549H390.401V138.02H380.542V142.85H393.413V147.614H374.315Z" fill="white"/>
<path d="M417.333 123.981V147.614H410.404L402.976 134.83L401.166 131.321H401.126L401.274 135.684V147.614H395.764V123.981H402.679L410.107 136.765L411.917 140.275H411.958L411.809 135.911V123.981H417.32H417.333Z" fill="white"/>
<path d="M442.954 147.614H436.539L434.878 142.276H426.693L424.991 147.614H418.724L427.139 123.981H434.608L442.981 147.614H442.954ZM427.841 138.086H433.716L430.785 128.532L427.854 138.086H427.841Z" fill="white"/>
<path d="M77.5822 97.373C80.0539 96.4122 78.4466 94.9844 78.5952 93.4498C81.3505 64.8131 123.233 60.1159 142.642 74.888C137.01 76.3558 132.188 80.3324 128.352 84.5492C121.478 92.0754 117.75 104.219 107.107 107.448C99.3409 109.81 90.6023 109.116 83.9032 104.392C89.981 93.8635 100.246 85.3499 110.916 79.5985C111.064 78.7578 110.227 79.0514 109.714 79.1982C97.1798 82.6677 79.0004 99.1745 76.2316 111.985C75.3942 115.828 80.6211 119.511 83.471 121.62C105.041 137.673 128.893 130.88 148.193 115.655C149.287 114.787 150.935 112.225 152.34 112.585L174.355 134.67C165.306 144.158 154.744 152.698 142.264 157.355C94.7757 175.05 39.7646 149.949 29.5944 99.5882C28.0411 91.8752 28.2302 86.6042 25.7316 78.8379C20.9909 64.0524 18.2761 46.6649 4.04045 37.5241C3.81085 36.3498 4.5672 36.8702 5.26953 36.67C35.1319 28.4099 82.8227 47.172 78.5682 83.455C78.3251 85.4833 76.7853 88.0187 76.6638 89.3264C76.4882 91.1012 78.4331 94.9577 77.5687 97.3597L77.5822 97.373ZM73.3412 110.424C73.5979 90.7009 62.7118 72.5394 48.4897 59.462L41.0747 53.9909C53.0953 66.8147 63.2385 82.0271 67.493 99.2145L73.3412 110.424Z" fill="#009E00"/>
<path d="M159.35 40.7133C156.851 43.5423 154.15 46.2512 151.935 49.3337L150.841 49.8408C143.817 44.5431 136.416 38.258 127.974 35.3089C111.713 29.6109 92.696 32.213 79.946 44.0627C77.0152 46.785 75.0297 50.5747 72.0989 52.9233C66.2371 46.0243 57.7282 40.74 49.3813 37.1771C47.612 36.4165 45.2484 35.9628 43.4115 35.2288C42.8983 35.0287 42.4661 35.5224 42.6551 34.4015C56.1479 13.7579 80.6618 1.38781 105.324 0.146799C130.554 -1.13425 155.365 5.97823 173.072 24.1931L172.923 25.0739C168.264 30.1714 163.901 35.5357 159.336 40.7L159.35 40.7133Z" fill="white"/>
</g>
<defs>
<filter id="filter0_d_497_573" x="0" y="0" width="463" height="171" filterUnits="userSpaceOnUse" color-interpolation-filters="sRGB">
<feFlood flood-opacity="0" result="BackgroundImageFix"/>
<feColorMatrix in="SourceAlpha" type="matrix" values="0 0 0 0 0 0 0 0 0 0 0 0 0 0 0 0 0 0 127 0" result="hardAlpha"/>
<feOffset dy="4"/>
<feGaussianBlur stdDeviation="2"/>
<feComposite in2="hardAlpha" operator="out"/>
<feColorMatrix type="matrix" values="0 0 0 0 0 0 0 0 0 0 0 0 0 0 0 0 0 0 0.25 0"/>
<feBlend mode="normal" in2="BackgroundImageFix" result="effect1_dropShadow_497_573"/>
<feBlend mode="normal" in="SourceGraphic" in2="effect1_dropShadow_497_573" result="shape"/>
</filter>
<clipPath id="clip0_497_573">
<rect width="455" height="163" fill="white" transform="translate(4)"/>
</clipPath>
</defs>
</svg>
