<svg width="97" height="90" viewBox="0 0 97 90" fill="none" xmlns="http://www.w3.org/2000/svg">
<path d="M73.2527 86.9394L66.9532 89.9673H66.5158L50.0388 63.7931C48.9186 62.7974 47.1317 63.0935 46.3209 64.3139L30.4467 89.998L29.7799 89.9112L23.8857 86.9904L48.2679 47.387L73.2474 86.9292L73.2527 86.9394Z" fill="white"/>
<path d="M96.5471 46.9732H68.6391C68.5538 46.9732 67.6843 47.3766 67.551 47.4736C66.7455 48.0506 66.3988 49.3475 66.8469 50.2309L83.7773 78.32L78.0911 83.2985L52.3062 39.9624H96.3284L96.5471 40.1718V46.9732Z" fill="white"/>
<path d="M44.2462 39.9624L18.4613 83.2985C18.3439 83.3853 17.4478 82.6602 17.2878 82.5275C15.7516 81.2458 14.2473 79.6884 12.7805 78.32L29.7749 50.0216C30.1429 49.1484 29.7055 47.928 28.9107 47.4174C28.7881 47.3408 27.9719 46.9732 27.9079 46.9732H0V39.9624H44.2462Z" fill="white"/>
<path d="M47.7295 0.0321455C61.4914 -0.90739 62.8196 19.0526 49.2924 20.0432C35.7118 21.0389 34.0209 0.966575 47.7295 0.0321455Z" fill="white"/>
<path d="M62.1206 32.1091V23.6227L62.3393 23.4133H68.1268V36.7353H60.1416L52.0072 27.9017V36.526L51.7885 36.7353H46.2197L46.001 36.526V23.4133H53.8421L62.1206 32.1091Z" fill="white"/>
<path d="M10.6948 32.2471C10.6414 32.7781 10.7215 33.3245 11.2015 33.6513C12.231 34.3508 16.8823 34.5142 17.4744 33.3296C17.7784 32.5024 16.4556 32.2164 15.8208 32.0377C13.1058 31.282 6.32083 31.2258 5.09933 28.4174C2.57631 22.6117 15.5061 22.9181 18.6426 23.4491C20.8402 23.8219 23.5233 24.7614 23.2992 27.34H17.6611C17.245 25.8388 14.9407 25.7163 13.5592 25.798C11.5482 25.9205 10.2681 26.9213 12.8658 27.7179C15.9009 28.6523 24.4621 28.443 24.0193 32.9977C23.6193 37.0622 14.53 37.0571 11.5109 36.8681C8.49181 36.6792 4.44324 35.8929 4.54992 32.242H10.7055L10.6948 32.2471Z" fill="white"/>
<path d="M94.0561 36.7352H87.3884L85.6015 34.2383C82.5984 34.2383 79.5793 33.9472 76.8323 34.2025C75.6695 34.3098 75.3868 35.9744 74.6453 36.7352H68.5645L77.9684 23.4387L85.0575 23.5408L94.0561 36.7352ZM84.092 31.4044L81.3076 26.6352L78.0858 31.4044" fill="white"/>
<path d="M43.0721 23.4133V26.1502L42.8534 26.3596H32.6707L32.8147 28.3255H42.192V31.2717H32.8147V33.7942H43.5095C43.3922 33.932 43.5095 34.0597 43.5095 34.1465V36.5311L43.2908 36.7404H26.5151V23.4184H43.0721V23.4133Z" fill="white"/>
</svg>
