<svg width="150" height="150" viewBox="0 0 150 150" fill="none" xmlns="http://www.w3.org/2000/svg">
<rect width="150" height="150" rx="70" fill="#FDC300"/>
<rect width="150" height="150" rx="70" fill="black" fill-opacity="0.2"/>
<g clip-path="url(#clip0_2335_3095)">
<path d="M86.9559 74.6895C85.1248 76.7593 82.6475 77.2767 85.3402 81.1059L101.281 84.521C105.374 85.6594 109.575 87.1082 112.375 90.3164C113.883 92.0757 115.499 96.4223 116.576 97.2502C119.915 99.527 124.977 95.0769 124.762 101.597C124.439 110.083 118.838 128.504 107.313 127.469C102.251 127.055 99.4502 122.191 96.0035 119.604L31.9162 119.397C30.6237 118.983 30.3005 118.052 30.0851 116.81C29.5466 112.049 29.762 99.734 31.2699 95.3874C35.3629 83.7966 50.7654 84.2105 60.9978 81.3128C65.0908 77.7942 58.8436 73.9651 56.9049 70.6534C55.8278 68.7906 55.5046 66.6173 54.7507 65.2719C53.9967 63.9266 51.7348 64.0301 50.4423 62.8917C45.8107 58.8556 49.2575 54.923 52.1656 51.5078C47.6418 45.195 48.3958 34.3286 55.1815 29.5681C56.9049 28.4297 58.9513 28.1192 60.567 27.2913C64.2291 25.4285 64.4445 23.2552 70.1531 22.6343C86.6327 20.7714 99.7733 30.2925 95.5727 47.0578C95.2495 48.1962 93.7416 50.1625 93.957 51.4044C94.1724 52.2323 96.3266 53.3707 97.0806 54.4055C99.1271 57.1998 98.5885 61.1324 95.6804 63.2022C94.4956 64.0301 92.8799 63.8231 92.0182 64.9615C91.4797 65.7894 91.6951 66.9278 91.2643 67.7557C90.1872 70.2394 88.5715 72.5162 86.8482 74.586L86.9559 74.6895ZM92.5568 47.4717C95.3572 40.6414 93.8493 32.1553 87.0636 28.1192C81.6781 24.911 70.2609 23.3587 64.9831 26.7738C58.3051 31.0169 64.3368 39.5031 70.2609 41.2624C71.6611 41.6763 74.5693 42.1938 76.0772 42.2973C79.9547 42.6077 87.279 40.6414 90.0795 43.2287L92.5568 47.5752V47.4717ZM54.9661 50.059C56.0432 45.6089 58.8436 41.9868 61.7518 38.4682L58.7359 30.396C52.9196 32.6727 51.0885 38.8821 51.8425 44.4706C51.8425 45.195 53.4581 51.0939 54.8584 50.059H54.9661ZM62.398 41.4694C62.398 41.4694 59.7053 44.8845 59.4899 45.402C55.9355 51.7148 55.5046 64.2371 59.4899 70.3429C67.1373 82.1407 87.6021 78.5186 89.864 64.9615C90.4026 61.6498 90.618 50.8869 89.864 47.6787C88.5715 41.7798 81.8935 44.4706 77.3697 44.3671C74.0307 44.3671 70.1532 43.8496 67.1373 42.5042C65.6293 41.8833 64.5522 39.8135 62.398 41.4694ZM54.4275 61.3393C54.7507 60.8219 55.3969 53.9916 52.4888 54.923C51.0885 55.337 50.6577 58.0277 50.9808 59.373C51.3039 60.7184 53.5658 62.7882 54.4275 61.3393ZM92.5568 61.3393C96.8652 62.3742 97.0806 54.3021 92.5568 54.8195V61.3393ZM65.6293 78.4151C65.6293 78.4151 65.0908 78.9326 64.9831 79.45C63.6906 87.3152 73.8153 91.9723 79.5239 86.4873C81.6781 84.314 82.7552 81.1058 81.1395 78.4151C75.8618 80.6919 71.0148 80.4849 65.737 78.4151H65.6293ZM32.7779 98.1816C31.9162 103.46 33.4241 110.911 32.7779 116.499L33.4241 117.12H43.6566C43.6566 117.12 44.0874 116.189 44.0874 115.982V103.77L46.3493 103.149V115.982C46.3493 115.982 47.4264 117.12 47.5341 117.12H94.1724C95.8958 117.12 93.4185 112.256 93.203 111.428C92.6645 109.358 90.8334 99.734 91.8028 98.2851C96.1112 97.5607 99.881 98.2851 103.974 96.0083C105.59 95.1804 107.098 92.9037 108.929 93.5246C109.144 93.5246 111.945 96.9398 112.375 94.9734C112.699 93.3176 107.421 88.8676 105.697 88.3501L85.0171 83.4861C83.0783 83.4861 82.7552 86.3838 81.1395 87.9362C76.9389 91.9723 69.5069 92.0757 65.4139 87.9362C64.2291 86.7978 63.4751 84.4175 62.8289 83.7966C61.4287 82.5547 54.7507 85.0385 52.7042 85.4524C44.8414 87.1082 34.3935 88.3501 32.6702 97.9746L32.7779 98.1816ZM121.962 100.562C119.161 100.562 115.93 100.044 113.237 99.113C111.298 98.3886 110.006 97.2502 108.175 96.5258C103.759 98.6991 99.4502 100.769 94.3878 100.458C93.3107 107.289 99.4502 125.71 108.498 125.089C117.545 124.468 122.5 107.806 122.069 100.458L121.962 100.562Z" fill="white"/>
<path d="M113.453 108.634C112.806 109.565 112.16 110.6 111.514 111.532C110.545 112.981 109.575 114.636 108.498 116.085C107.96 116.81 106.99 117.431 106.021 116.913C105.375 116.603 104.621 115.464 104.19 114.843C103.113 113.498 102.143 112.153 101.174 110.704C100.958 109.772 102.574 108.427 103.543 108.634C103.759 108.634 103.974 109.152 104.19 109.255L106.882 112.36C106.882 112.36 107.206 112.049 107.313 111.946C109.575 109.462 111.622 106.771 113.991 104.288C114.53 103.77 115.822 102.321 116.576 102.321C116.899 102.321 117.223 102.321 117.115 102.735C116.899 103.253 116.253 104.288 115.93 104.805C115.176 106.047 114.314 107.289 113.56 108.427L113.453 108.634Z" fill="white"/>
</g>
<defs>
<clipPath id="clip0_2335_3095">
<rect width="95" height="106" fill="white" transform="translate(27.5 22)"/>
</clipPath>
</defs>
</svg>
