<svg width="26" height="30" viewBox="0 0 26 30" fill="none" xmlns="http://www.w3.org/2000/svg">
<mask id="path-1-inside-1_2817_2209" fill="white">
<path fill-rule="evenodd" clip-rule="evenodd" d="M12.4917 0.0390191C10.9891 0.276653 9.83951 1.43644 9.61036 2.94578C9.45194 3.98907 9.82094 5.09148 10.5813 5.84664C11.935 7.19114 14.0664 7.19114 15.4201 5.84664C16.7606 4.51534 16.7599 2.35948 15.4184 1.00802C14.6598 0.24369 13.5405 -0.126872 12.4917 0.0390191ZM12.706 1.73821C12.3594 1.80312 12.0529 1.96654 11.7962 2.22334C11.5927 2.42688 11.4709 2.62091 11.3736 2.8966L11.3042 3.09318V3.42818V3.76317L11.3736 3.95975C11.4709 4.23544 11.5927 4.42947 11.7962 4.63302C11.9997 4.83659 12.1937 4.95842 12.4693 5.05578L12.6658 5.12519H13.0007H13.3356L13.5321 5.05578C13.8077 4.95842 14.0017 4.83659 14.2052 4.63302C14.4087 4.42947 14.5305 4.23544 14.6278 3.95975L14.6972 3.76317V3.42818V3.09318L14.6278 2.8966C14.5305 2.62091 14.4087 2.42688 14.2052 2.22334C13.8866 1.90463 13.5251 1.74475 13.0811 1.72625C12.9411 1.72041 12.7723 1.7258 12.706 1.73821ZM2.25726 6.41702C2.03505 6.46277 1.77857 6.56493 1.57407 6.68923C0.660849 7.24423 0.26669 8.37245 0.639978 9.36291C0.842577 9.90052 1.26101 10.3605 1.76161 10.5958C1.86476 10.6442 3.47127 11.225 5.3316 11.8863L8.71405 13.0887V15.9233V18.7579L7.62872 23.1003C7.0318 25.4885 6.53337 27.5356 6.5211 27.6494C6.40938 28.6853 7.0643 29.6429 8.08672 29.9387L8.29878 30L8.64707 29.998C9.06199 29.9955 9.23847 29.9553 9.5888 29.7832C10.0024 29.58 10.368 29.2187 10.5625 28.821C10.6057 28.7326 11.169 27.0715 11.8142 25.1297C12.4594 23.188 12.9933 21.5993 13.0007 21.5993C13.0081 21.5993 13.542 23.188 14.1872 25.1297C14.8324 27.0715 15.3957 28.7326 15.439 28.821C15.6334 29.2187 15.999 29.58 16.4126 29.7832C16.763 29.9553 16.9394 29.9955 17.3544 29.998L17.7026 30L17.9147 29.9387C18.9371 29.6429 19.5921 28.6853 19.4803 27.6494C19.4681 27.5356 18.9696 25.4885 18.3727 23.1003L17.2874 18.7579V15.9233V13.0887L20.6698 11.8863C22.5302 11.225 24.1367 10.6442 24.2398 10.5958C25.1725 10.1573 25.6811 9.08532 25.4407 8.06454C25.3872 7.83741 25.2031 7.44981 25.0524 7.24699C24.8326 6.95136 24.4552 6.66642 24.0925 6.5224C23.7068 6.36927 23.1663 6.33116 22.7663 6.4289C22.6484 6.45768 21.1414 6.95206 19.4174 7.5275L16.283 8.57374H13.0007H9.71847L6.58398 7.5275C4.86001 6.95206 3.35304 6.45768 3.23515 6.4289L3.02082 6.37653L2.72611 6.37886C2.56402 6.38015 2.35304 6.39733 2.25726 6.41702ZM2.50479 8.13564C2.30015 8.23654 2.17455 8.4846 2.2258 8.68659C2.25602 8.80572 2.34248 8.94165 2.42955 9.00696C2.46227 9.03151 4.27547 9.68767 6.45889 10.4651L10.4287 11.8786V15.4254V18.9723L9.33026 23.3672C8.7261 25.7844 8.2318 27.8136 8.2318 27.8766C8.2318 28.0357 8.30837 28.1644 8.44648 28.2374C8.63659 28.338 8.82523 28.3031 8.96045 28.1424L9.03019 28.0595L10.6277 23.2679L12.2253 18.4763L12.3139 18.3555C12.4162 18.2158 12.5635 18.1109 12.7427 18.05C13.0769 17.9365 13.4748 18.0652 13.6876 18.3555L13.7761 18.4763L15.3737 23.2679L16.9712 28.0595L17.041 28.1424C17.1762 28.3031 17.3648 28.338 17.5549 28.2374C17.6931 28.1644 17.7696 28.0357 17.7696 27.8766C17.7696 27.8136 17.2753 25.7844 16.6712 23.3672L15.5727 18.9723V15.4254V11.8785L19.5518 10.4618L23.531 9.04509L23.6127 8.96515C23.732 8.84849 23.781 8.73869 23.7817 8.58604C23.7826 8.42537 23.7211 8.30671 23.5763 8.18967L23.4754 8.10809L23.3218 8.09826L23.1681 8.08842L19.8729 9.18869L16.5776 10.2889H13.0007H9.42379L6.12865 9.19013L2.83352 8.09134L2.71285 8.09196C2.64646 8.09228 2.55285 8.11195 2.50479 8.13564Z"/>
</mask>
<path fill-rule="evenodd" clip-rule="evenodd" d="M12.4917 0.0390191C10.9891 0.276653 9.83951 1.43644 9.61036 2.94578C9.45194 3.98907 9.82094 5.09148 10.5813 5.84664C11.935 7.19114 14.0664 7.19114 15.4201 5.84664C16.7606 4.51534 16.7599 2.35948 15.4184 1.00802C14.6598 0.24369 13.5405 -0.126872 12.4917 0.0390191ZM12.706 1.73821C12.3594 1.80312 12.0529 1.96654 11.7962 2.22334C11.5927 2.42688 11.4709 2.62091 11.3736 2.8966L11.3042 3.09318V3.42818V3.76317L11.3736 3.95975C11.4709 4.23544 11.5927 4.42947 11.7962 4.63302C11.9997 4.83659 12.1937 4.95842 12.4693 5.05578L12.6658 5.12519H13.0007H13.3356L13.5321 5.05578C13.8077 4.95842 14.0017 4.83659 14.2052 4.63302C14.4087 4.42947 14.5305 4.23544 14.6278 3.95975L14.6972 3.76317V3.42818V3.09318L14.6278 2.8966C14.5305 2.62091 14.4087 2.42688 14.2052 2.22334C13.8866 1.90463 13.5251 1.74475 13.0811 1.72625C12.9411 1.72041 12.7723 1.7258 12.706 1.73821ZM2.25726 6.41702C2.03505 6.46277 1.77857 6.56493 1.57407 6.68923C0.660849 7.24423 0.26669 8.37245 0.639978 9.36291C0.842577 9.90052 1.26101 10.3605 1.76161 10.5958C1.86476 10.6442 3.47127 11.225 5.3316 11.8863L8.71405 13.0887V15.9233V18.7579L7.62872 23.1003C7.0318 25.4885 6.53337 27.5356 6.5211 27.6494C6.40938 28.6853 7.0643 29.6429 8.08672 29.9387L8.29878 30L8.64707 29.998C9.06199 29.9955 9.23847 29.9553 9.5888 29.7832C10.0024 29.58 10.368 29.2187 10.5625 28.821C10.6057 28.7326 11.169 27.0715 11.8142 25.1297C12.4594 23.188 12.9933 21.5993 13.0007 21.5993C13.0081 21.5993 13.542 23.188 14.1872 25.1297C14.8324 27.0715 15.3957 28.7326 15.439 28.821C15.6334 29.2187 15.999 29.58 16.4126 29.7832C16.763 29.9553 16.9394 29.9955 17.3544 29.998L17.7026 30L17.9147 29.9387C18.9371 29.6429 19.5921 28.6853 19.4803 27.6494C19.4681 27.5356 18.9696 25.4885 18.3727 23.1003L17.2874 18.7579V15.9233V13.0887L20.6698 11.8863C22.5302 11.225 24.1367 10.6442 24.2398 10.5958C25.1725 10.1573 25.6811 9.08532 25.4407 8.06454C25.3872 7.83741 25.2031 7.44981 25.0524 7.24699C24.8326 6.95136 24.4552 6.66642 24.0925 6.5224C23.7068 6.36927 23.1663 6.33116 22.7663 6.4289C22.6484 6.45768 21.1414 6.95206 19.4174 7.5275L16.283 8.57374H13.0007H9.71847L6.58398 7.5275C4.86001 6.95206 3.35304 6.45768 3.23515 6.4289L3.02082 6.37653L2.72611 6.37886C2.56402 6.38015 2.35304 6.39733 2.25726 6.41702ZM2.50479 8.13564C2.30015 8.23654 2.17455 8.4846 2.2258 8.68659C2.25602 8.80572 2.34248 8.94165 2.42955 9.00696C2.46227 9.03151 4.27547 9.68767 6.45889 10.4651L10.4287 11.8786V15.4254V18.9723L9.33026 23.3672C8.7261 25.7844 8.2318 27.8136 8.2318 27.8766C8.2318 28.0357 8.30837 28.1644 8.44648 28.2374C8.63659 28.338 8.82523 28.3031 8.96045 28.1424L9.03019 28.0595L10.6277 23.2679L12.2253 18.4763L12.3139 18.3555C12.4162 18.2158 12.5635 18.1109 12.7427 18.05C13.0769 17.9365 13.4748 18.0652 13.6876 18.3555L13.7761 18.4763L15.3737 23.2679L16.9712 28.0595L17.041 28.1424C17.1762 28.3031 17.3648 28.338 17.5549 28.2374C17.6931 28.1644 17.7696 28.0357 17.7696 27.8766C17.7696 27.8136 17.2753 25.7844 16.6712 23.3672L15.5727 18.9723V15.4254V11.8785L19.5518 10.4618L23.531 9.04509L23.6127 8.96515C23.732 8.84849 23.781 8.73869 23.7817 8.58604C23.7826 8.42537 23.7211 8.30671 23.5763 8.18967L23.4754 8.10809L23.3218 8.09826L23.1681 8.08842L19.8729 9.18869L16.5776 10.2889H13.0007H9.42379L6.12865 9.19013L2.83352 8.09134L2.71285 8.09196C2.64646 8.09228 2.55285 8.11195 2.50479 8.13564Z" fill="#F6F6F6" stroke="#F6F6F6" stroke-width="0.354242" mask="url(#path-1-inside-1_2817_2209)"/>
</svg>
