<svg width="25" height="31" viewBox="0 0 25 31" fill="none" xmlns="http://www.w3.org/2000/svg">
<mask id="path-1-inside-1_2817_2577" fill="white">
<path fill-rule="evenodd" clip-rule="evenodd" d="M14.5782 0.464114C13.0677 0.284319 11.6461 1.08789 11.0152 2.47808C10.5791 3.43901 10.6345 4.60022 11.161 5.53365C12.0982 7.19554 14.1493 7.77496 15.8176 6.84914C17.4695 5.93239 18.0548 3.85753 17.1314 2.19229C16.6091 1.2505 15.6327 0.589616 14.5782 0.464114ZM14.3226 2.15757C13.9714 2.12582 13.632 2.19976 13.3152 2.3771C13.064 2.51766 12.894 2.67127 12.7254 2.91011L12.6052 3.08042L12.5141 3.4028L12.4231 3.72518L12.4364 3.93322C12.4551 4.22499 12.5196 4.44482 12.6601 4.69603C12.8006 4.94725 12.9541 5.11722 13.1929 5.28585L13.3631 5.40607L13.6854 5.49711L14.0077 5.58816L14.2157 5.57479C14.5074 5.55602 14.7271 5.49151 14.9783 5.35092C15.2295 5.21037 15.3994 5.05676 15.5681 4.81791L15.6883 4.64761L15.7793 4.32523L15.8704 4.00284L15.8571 3.79481C15.8384 3.50304 15.7739 3.28321 15.6334 3.032C15.4135 2.63869 15.109 2.38653 14.6868 2.24804C14.5536 2.20436 14.3897 2.16366 14.3226 2.15757ZM2.99537 3.81957C2.76909 3.80319 2.4945 3.83177 2.26391 3.89579C1.2342 4.18162 0.548169 5.16019 0.638129 6.21483C0.686944 6.78727 0.964577 7.34364 1.38236 7.70617C1.46844 7.78087 2.85656 8.7765 4.46705 9.91863L7.39522 11.9953L6.62459 14.7231L5.85397 17.451L3.62901 21.3347C2.40529 23.4708 1.36911 25.3053 1.32638 25.4114C0.93723 26.378 1.30715 27.4776 2.21067 28.0401L2.39806 28.1568L2.73379 28.2495C3.13374 28.36 3.31452 28.3692 3.69843 28.2989C4.15167 28.2158 4.60176 27.9675 4.89701 27.6376C4.96267 27.5642 5.95632 26.1189 7.10511 24.4257C8.25391 22.7325 9.19964 21.3488 9.20673 21.3508C9.21382 21.3528 9.29573 23.0268 9.38877 25.0708C9.48178 27.1148 9.57229 28.8665 9.58986 28.9633C9.66887 29.3989 9.92249 29.846 10.2653 30.154C10.5556 30.4148 10.7145 30.5016 11.1131 30.6167L11.4478 30.7133L11.6685 30.7119C12.7328 30.7053 13.6234 29.9618 13.7975 28.9345C13.8166 28.8217 13.8935 26.7162 13.9683 24.2556L14.1044 19.7818L14.875 17.0539L15.6457 14.326L19.2276 14.0885C21.1977 13.9579 22.9015 13.8357 23.014 13.8171C24.0307 13.6488 24.8116 12.7554 24.8578 11.7077C24.868 11.4746 24.7962 11.0515 24.7063 10.8154C24.5752 10.4711 24.2894 10.0943 23.9795 9.85711C23.6501 9.60491 23.1402 9.42128 22.7287 9.40659C22.6074 9.40224 21.0228 9.46831 19.2074 9.5534L15.9065 9.70809L12.7479 8.81578L9.58924 7.92346L6.85723 6.06449C5.35464 5.04204 4.03882 4.15659 3.9332 4.09685L3.74118 3.98818L3.45694 3.91031C3.3006 3.86748 3.09289 3.82665 2.99537 3.81957ZM2.76635 5.54075C2.54199 5.58222 2.35368 5.78679 2.34809 5.99511C2.34479 6.11796 2.39104 6.27228 2.45707 6.3588C2.48188 6.39132 4.04841 7.51571 5.93824 8.85742L9.37428 11.2969L8.41003 14.7102L7.44578 18.1235L5.19388 22.0542C3.95534 24.2162 2.92799 26.0346 2.91088 26.0951C2.86763 26.2482 2.90633 26.3929 3.01938 26.5008C3.17499 26.6492 3.36601 26.6669 3.53983 26.549L3.62948 26.4882L6.46952 22.3114L9.30958 18.1346L9.42761 18.0424C9.56406 17.9358 9.73437 17.8749 9.92329 17.865C10.2758 17.8467 10.6238 18.0786 10.7496 18.4158L10.8019 18.5561L11.0367 23.6016L11.2714 28.647L11.316 28.7458C11.4024 28.9372 11.5745 29.0221 11.7848 28.977C11.9376 28.9442 12.0462 28.8412 12.0895 28.6881C12.1066 28.6275 12.1826 26.5404 12.2583 24.0499L12.396 19.5219L13.3603 16.1086L14.3246 12.6953L18.539 12.4137L22.7534 12.1321L22.8538 12.0774C23.0003 11.9976 23.0772 11.9052 23.1195 11.7585C23.164 11.6042 23.1371 11.4732 23.0296 11.3213L22.9547 11.2153L22.8095 11.1641L22.6643 11.1129L19.194 11.2758L15.7238 11.4388L12.2816 10.4664L8.83936 9.49394L5.96705 7.54071L3.09474 5.58749L2.97845 5.55528C2.91447 5.53754 2.81904 5.53102 2.76635 5.54075Z"/>
</mask>
<path fill-rule="evenodd" clip-rule="evenodd" d="M14.5782 0.464114C13.0677 0.284319 11.6461 1.08789 11.0152 2.47808C10.5791 3.43901 10.6345 4.60022 11.161 5.53365C12.0982 7.19554 14.1493 7.77496 15.8176 6.84914C17.4695 5.93239 18.0548 3.85753 17.1314 2.19229C16.6091 1.2505 15.6327 0.589616 14.5782 0.464114ZM14.3226 2.15757C13.9714 2.12582 13.632 2.19976 13.3152 2.3771C13.064 2.51766 12.894 2.67127 12.7254 2.91011L12.6052 3.08042L12.5141 3.4028L12.4231 3.72518L12.4364 3.93322C12.4551 4.22499 12.5196 4.44482 12.6601 4.69603C12.8006 4.94725 12.9541 5.11722 13.1929 5.28585L13.3631 5.40607L13.6854 5.49711L14.0077 5.58816L14.2157 5.57479C14.5074 5.55602 14.7271 5.49151 14.9783 5.35092C15.2295 5.21037 15.3994 5.05676 15.5681 4.81791L15.6883 4.64761L15.7793 4.32523L15.8704 4.00284L15.8571 3.79481C15.8384 3.50304 15.7739 3.28321 15.6334 3.032C15.4135 2.63869 15.109 2.38653 14.6868 2.24804C14.5536 2.20436 14.3897 2.16366 14.3226 2.15757ZM2.99537 3.81957C2.76909 3.80319 2.4945 3.83177 2.26391 3.89579C1.2342 4.18162 0.548169 5.16019 0.638129 6.21483C0.686944 6.78727 0.964577 7.34364 1.38236 7.70617C1.46844 7.78087 2.85656 8.7765 4.46705 9.91863L7.39522 11.9953L6.62459 14.7231L5.85397 17.451L3.62901 21.3347C2.40529 23.4708 1.36911 25.3053 1.32638 25.4114C0.93723 26.378 1.30715 27.4776 2.21067 28.0401L2.39806 28.1568L2.73379 28.2495C3.13374 28.36 3.31452 28.3692 3.69843 28.2989C4.15167 28.2158 4.60176 27.9675 4.89701 27.6376C4.96267 27.5642 5.95632 26.1189 7.10511 24.4257C8.25391 22.7325 9.19964 21.3488 9.20673 21.3508C9.21382 21.3528 9.29573 23.0268 9.38877 25.0708C9.48178 27.1148 9.57229 28.8665 9.58986 28.9633C9.66887 29.3989 9.92249 29.846 10.2653 30.154C10.5556 30.4148 10.7145 30.5016 11.1131 30.6167L11.4478 30.7133L11.6685 30.7119C12.7328 30.7053 13.6234 29.9618 13.7975 28.9345C13.8166 28.8217 13.8935 26.7162 13.9683 24.2556L14.1044 19.7818L14.875 17.0539L15.6457 14.326L19.2276 14.0885C21.1977 13.9579 22.9015 13.8357 23.014 13.8171C24.0307 13.6488 24.8116 12.7554 24.8578 11.7077C24.868 11.4746 24.7962 11.0515 24.7063 10.8154C24.5752 10.4711 24.2894 10.0943 23.9795 9.85711C23.6501 9.60491 23.1402 9.42128 22.7287 9.40659C22.6074 9.40224 21.0228 9.46831 19.2074 9.5534L15.9065 9.70809L12.7479 8.81578L9.58924 7.92346L6.85723 6.06449C5.35464 5.04204 4.03882 4.15659 3.9332 4.09685L3.74118 3.98818L3.45694 3.91031C3.3006 3.86748 3.09289 3.82665 2.99537 3.81957ZM2.76635 5.54075C2.54199 5.58222 2.35368 5.78679 2.34809 5.99511C2.34479 6.11796 2.39104 6.27228 2.45707 6.3588C2.48188 6.39132 4.04841 7.51571 5.93824 8.85742L9.37428 11.2969L8.41003 14.7102L7.44578 18.1235L5.19388 22.0542C3.95534 24.2162 2.92799 26.0346 2.91088 26.0951C2.86763 26.2482 2.90633 26.3929 3.01938 26.5008C3.17499 26.6492 3.36601 26.6669 3.53983 26.549L3.62948 26.4882L6.46952 22.3114L9.30958 18.1346L9.42761 18.0424C9.56406 17.9358 9.73437 17.8749 9.92329 17.865C10.2758 17.8467 10.6238 18.0786 10.7496 18.4158L10.8019 18.5561L11.0367 23.6016L11.2714 28.647L11.316 28.7458C11.4024 28.9372 11.5745 29.0221 11.7848 28.977C11.9376 28.9442 12.0462 28.8412 12.0895 28.6881C12.1066 28.6275 12.1826 26.5404 12.2583 24.0499L12.396 19.5219L13.3603 16.1086L14.3246 12.6953L18.539 12.4137L22.7534 12.1321L22.8538 12.0774C23.0003 11.9976 23.0772 11.9052 23.1195 11.7585C23.164 11.6042 23.1371 11.4732 23.0296 11.3213L22.9547 11.2153L22.8095 11.1641L22.6643 11.1129L19.194 11.2758L15.7238 11.4388L12.2816 10.4664L8.83936 9.49394L5.96705 7.54071L3.09474 5.58749L2.97845 5.55528C2.91447 5.53754 2.81904 5.53102 2.76635 5.54075Z" fill="#FDC300" stroke="#FDC300" stroke-width="0.354242" mask="url(#path-1-inside-1_2817_2577)"/>
</svg>
