<svg width="16" height="8" viewBox="0 0 16 8" fill="none" xmlns="http://www.w3.org/2000/svg">
<path d="M1.45455 8C1.24848 8 1.07588 7.9345 0.936727 7.8035C0.797091 7.67295 0.727273 7.51102 0.727273 7.3177C0.727273 7.12438 0.797091 6.96245 0.936727 6.8319C1.07588 6.7009 1.24848 6.63539 1.45455 6.63539H14.5455C14.7515 6.63539 14.9241 6.7009 15.0633 6.8319C15.2029 6.96245 15.2727 7.12438 15.2727 7.3177C15.2727 7.51102 15.2029 7.67295 15.0633 7.8035C14.9241 7.9345 14.7515 8 14.5455 8H1.45455ZM1.09091 3.6162C0.957576 3.54797 0.872727 3.44563 0.836364 3.30917C0.8 3.17271 0.818182 3.04193 0.890909 2.91684L1.23636 2.33689H0.545455C0.387879 2.33689 0.257455 2.28844 0.154182 2.19156C0.051394 2.09512 0 1.97299 0 1.82516C0 1.67733 0.051394 1.55497 0.154182 1.45808C0.257455 1.36165 0.387879 1.31343 0.545455 1.31343H1.23636L0.890909 0.76759C0.818182 0.642502 0.8 0.511727 0.836364 0.375266C0.872727 0.238806 0.957576 0.13646 1.09091 0.0682302C1.22424 -9.65875e-08 1.36364 -0.0170575 1.50909 0.0170576C1.65455 0.0511727 1.76364 0.130775 1.83636 0.255864L2.18182 0.801706L2.52727 0.255864C2.6 0.130775 2.70909 0.0511727 2.85455 0.0170576C3 -0.0170575 3.13939 -9.65875e-08 3.27273 0.0682302C3.40606 0.13646 3.49091 0.238806 3.52727 0.375266C3.56364 0.511727 3.54545 0.642502 3.47273 0.76759L3.12727 1.31343H3.81818C3.97576 1.31343 4.10594 1.36165 4.20873 1.45808C4.312 1.55497 4.36364 1.67733 4.36364 1.82516C4.36364 1.97299 4.312 2.09512 4.20873 2.19156C4.10594 2.28844 3.97576 2.33689 3.81818 2.33689H3.12727L3.47273 2.91684C3.54545 3.04193 3.56364 3.17271 3.52727 3.30917C3.49091 3.44563 3.40606 3.54797 3.27273 3.6162C3.13939 3.68444 3 3.70149 2.85455 3.66738C2.70909 3.63326 2.6 3.55366 2.52727 3.42857L2.18182 2.84861L1.83636 3.42857C1.76364 3.55366 1.65455 3.63326 1.50909 3.66738C1.36364 3.70149 1.22424 3.68444 1.09091 3.6162ZM6.90909 3.6162C6.77576 3.54797 6.69091 3.44563 6.65455 3.30917C6.61818 3.17271 6.63636 3.04193 6.70909 2.91684L7.05455 2.33689H6.36364C6.20606 2.33689 6.07588 2.28844 5.97309 2.19156C5.86982 2.09512 5.81818 1.97299 5.81818 1.82516C5.81818 1.67733 5.86982 1.55497 5.97309 1.45808C6.07588 1.36165 6.20606 1.31343 6.36364 1.31343H7.05455L6.70909 0.76759C6.63636 0.642502 6.61818 0.511727 6.65455 0.375266C6.69091 0.238806 6.77576 0.13646 6.90909 0.0682302C7.04242 -9.65875e-08 7.18182 -0.0170575 7.32727 0.0170576C7.47273 0.0511727 7.58182 0.130775 7.65455 0.255864L8 0.801706L8.34546 0.255864C8.41818 0.130775 8.52727 0.0511727 8.67273 0.0170576C8.81818 -0.0170575 8.95758 -9.65875e-08 9.09091 0.0682302C9.22424 0.13646 9.30909 0.238806 9.34546 0.375266C9.38182 0.511727 9.36364 0.642502 9.29091 0.76759L8.94545 1.31343H9.63636C9.79394 1.31343 9.92436 1.36165 10.0276 1.45808C10.1304 1.55497 10.1818 1.67733 10.1818 1.82516C10.1818 1.97299 10.1304 2.09512 10.0276 2.19156C9.92436 2.28844 9.79394 2.33689 9.63636 2.33689H8.94545L9.29091 2.91684C9.36364 3.04193 9.38182 3.17271 9.34546 3.30917C9.30909 3.44563 9.22424 3.54797 9.09091 3.6162C8.95758 3.68444 8.81818 3.70149 8.67273 3.66738C8.52727 3.63326 8.41818 3.55366 8.34546 3.42857L8 2.84861L7.65455 3.42857C7.58182 3.55366 7.47273 3.63326 7.32727 3.66738C7.18182 3.70149 7.04242 3.68444 6.90909 3.6162ZM12.7273 3.6162C12.5939 3.54797 12.5091 3.44563 12.4727 3.30917C12.4364 3.17271 12.4545 3.04193 12.5273 2.91684L12.8727 2.33689H12.1818C12.0242 2.33689 11.8938 2.28844 11.7905 2.19156C11.6878 2.09512 11.6364 1.97299 11.6364 1.82516C11.6364 1.67733 11.6878 1.55497 11.7905 1.45808C11.8938 1.36165 12.0242 1.31343 12.1818 1.31343H12.8727L12.5273 0.76759C12.4545 0.642502 12.4364 0.511727 12.4727 0.375266C12.5091 0.238806 12.5939 0.13646 12.7273 0.0682302C12.8606 -9.65875e-08 13 -0.0170575 13.1455 0.0170576C13.2909 0.0511727 13.4 0.130775 13.4727 0.255864L13.8182 0.801706L14.1636 0.255864C14.2364 0.130775 14.3455 0.0511727 14.4909 0.0170576C14.6364 -0.0170575 14.7758 -9.65875e-08 14.9091 0.0682302C15.0424 0.13646 15.1273 0.238806 15.1636 0.375266C15.2 0.511727 15.1818 0.642502 15.1091 0.76759L14.7636 1.31343H15.4545C15.6121 1.31343 15.7425 1.36165 15.8458 1.45808C15.9486 1.55497 16 1.67733 16 1.82516C16 1.97299 15.9486 2.09512 15.8458 2.19156C15.7425 2.28844 15.6121 2.33689 15.4545 2.33689H14.7636L15.1091 2.91684C15.1818 3.04193 15.2 3.17271 15.1636 3.30917C15.1273 3.44563 15.0424 3.54797 14.9091 3.6162C14.7758 3.68444 14.6364 3.70149 14.4909 3.66738C14.3455 3.63326 14.2364 3.55366 14.1636 3.42857L13.8182 2.84861L13.4727 3.42857C13.4 3.55366 13.2909 3.63326 13.1455 3.66738C13 3.70149 12.8606 3.68444 12.7273 3.6162Z" fill="#D9D9D9"/>
</svg>
