<svg width="11" height="9" viewBox="0 0 11 9" fill="none" xmlns="http://www.w3.org/2000/svg">
<path d="M9.42811 2.17841C9.35388 2.17841 9.30573 2.17841 9.25791 2.17841C8.01501 2.17841 6.7721 2.17997 5.5292 2.17464C5.45764 2.17464 5.36167 2.13981 5.31887 2.08992C4.75476 1.43507 4.19835 0.774881 3.6406 0.115321C3.61786 0.0886499 3.60248 0.0563308 3.57305 0.00926419C3.64528 0.00549887 3.69845 0.000478471 3.75161 0.000478471C4.93332 0.000164694 6.11504 -0.00140418 7.29642 0.00361626C7.37399 0.00393003 7.47698 0.0346802 7.52513 0.0864534C8.13773 0.743817 8.74263 1.40746 9.34886 2.07015C9.37261 2.0962 9.39033 2.12663 9.42811 2.17841Z" fill="white"/>
<path d="M9.52471 4.96212C8.1738 4.71172 6.84228 4.75973 5.51077 5.13878C5.50709 5.07037 5.50207 5.02017 5.50207 4.97028C5.50174 4.1601 5.50475 3.35025 5.49906 2.54007C5.49806 2.40358 5.52715 2.35149 5.68899 2.35243C6.90849 2.35934 8.12799 2.3562 9.34749 2.35651C9.40199 2.35651 9.45683 2.35651 9.52505 2.35651L9.52471 4.96212Z" fill="white"/>
<path d="M4.03651 3.41212H2.72004V4.69924C2.35289 4.75038 1.99844 4.79965 1.62928 4.85079V2.44914H5.39444V5.01239C5.31084 4.98979 5.23461 4.96438 5.15636 4.949C4.8407 4.88593 4.52605 4.81345 4.20738 4.76984C4.05858 4.74944 4.03082 4.69798 4.0335 4.57122C4.04186 4.19029 4.03651 3.80905 4.03651 3.41212Z" fill="white"/>
<path d="M2.11574 8.00617C1.31523 7.40435 0.762157 6.67481 0.5 5.7316C1.93885 5.1257 3.38975 5.06922 4.92089 5.54679C3.70005 6.10907 2.75442 6.88944 2.11574 8.00617Z" fill="white"/>
<path d="M3.50855 8.65466C3.87537 7.83696 4.41139 7.18179 5.21592 6.73936C6.10772 6.24893 7.08445 6.1162 8.09764 6.15919C8.71123 6.18523 9.31513 6.28093 9.90766 6.435C10.0187 6.46387 10.1277 6.49964 10.2772 6.54388C10.112 6.77011 9.96517 6.97721 9.80834 7.1774C9.79029 7.2003 9.7087 7.19873 9.6669 7.18336C9.21949 7.01862 8.76406 6.88558 8.28389 6.83538C6.91994 6.69292 5.80577 7.15386 4.89524 8.08547C4.6896 8.29601 4.52742 8.54358 4.33849 8.76919C4.30572 8.80841 4.23149 8.85359 4.19036 8.84387C3.96499 8.79115 3.74396 8.72212 3.50855 8.65466Z" fill="white"/>
<path d="M9.35626 7.65847C8.06052 8.73347 6.57285 9.11973 4.84676 8.96849C5.00325 8.73943 5.12296 8.52826 5.27744 8.34345C5.94721 7.54237 6.86242 7.28068 7.90169 7.3585C8.30863 7.38894 8.70889 7.49688 9.11149 7.57407C9.18539 7.58819 9.25461 7.6227 9.35626 7.65847Z" fill="white"/>
<path d="M1.76963 2.16853C2.37086 1.48324 2.95068 0.822737 3.54521 0.144978C4.11367 0.816775 4.67476 1.47979 5.25726 2.16853H1.76963Z" fill="white"/>
<path d="M10.5 6.00956C10.4733 6.07294 10.4438 6.14323 10.4161 6.20944C10.0111 6.09428 9.62726 5.9694 9.23469 5.87683C8.12855 5.61609 7.01873 5.55427 5.9283 5.93708C4.64628 6.38735 3.80798 7.26467 3.28232 8.42878C3.26761 8.46173 3.25156 8.49374 3.2315 8.53578C3.09039 8.46926 2.95697 8.40619 2.78041 8.32273C2.92119 8.05915 3.0399 7.78962 3.2004 7.54487C3.86181 6.53671 4.83052 5.89284 6.0226 5.55584C7.51061 5.13506 8.96183 5.25085 10.3555 5.91198C10.3953 5.9308 10.4338 5.95151 10.4719 5.97285C10.4806 5.97756 10.4846 5.98948 10.499 6.00925L10.5 6.00956Z" fill="white"/>
</svg>
