<svg width="90" height="89" viewBox="0 0 90 89" fill="none" xmlns="http://www.w3.org/2000/svg">
<path d="M80.353 21.542C79.6849 21.542 79.2516 21.542 78.8212 21.542C67.6351 21.542 56.4489 21.5575 45.2628 21.5048C44.6187 21.5048 43.755 21.1604 43.3698 20.667C38.2929 14.1912 33.2851 7.66271 28.2654 1.1404C28.0607 0.876649 27.9223 0.557049 27.6575 0.0916126C28.3075 0.0543777 28.786 0.00473155 29.2645 0.00473155C39.8999 0.00162864 50.5353 -0.0138858 61.1677 0.0357607C61.8659 0.0388637 62.7928 0.342948 63.2262 0.854928C68.7395 7.35552 74.1836 13.9182 79.6398 20.4715C79.8534 20.7291 80.013 21.03 80.353 21.542Z" fill="white" fill-opacity="0.2"/>
<path d="M81.2224 49.0698C69.0642 46.5937 57.0806 47.0685 45.0969 50.8168C45.0638 50.1403 45.0187 49.6439 45.0187 49.1505C45.0156 41.1388 45.0427 33.1302 44.9916 25.1185C44.9825 23.7687 45.2444 23.2537 46.7009 23.263C57.6764 23.3312 68.6519 23.3002 79.6274 23.3033C80.1179 23.3033 80.6115 23.3033 81.2254 23.3033L81.2224 49.0698Z" fill="white" fill-opacity="0.2"/>
<path d="M31.8286 33.7421H19.9803V46.4702C16.676 46.976 13.4859 47.4632 10.1635 47.9689V24.2193H44.05V49.5669C43.2976 49.3435 42.6114 49.0922 41.9072 48.9401C39.0663 48.3165 36.2344 47.5997 33.3664 47.1684C32.0272 46.9667 31.7774 46.4578 31.8015 45.2042C31.8767 41.4373 31.8286 37.6673 31.8286 33.7421Z" fill="white" fill-opacity="0.2"/>
<path d="M14.5417 79.1721C7.33705 73.2208 2.35941 66.0065 0 56.6792C12.9497 50.6874 26.0077 50.1289 39.788 54.8515C28.8005 60.412 20.2897 68.1289 14.5417 79.1721Z" fill="white" fill-opacity="0.2"/>
<path d="M27.077 85.585C30.3783 77.4988 35.2025 71.0199 42.4432 66.6448C50.4695 61.795 59.2601 60.4824 68.3787 60.9075C73.9011 61.1651 79.3361 62.1115 84.6689 63.635C85.668 63.9205 86.6491 64.2742 87.9943 64.7117C86.5077 66.9489 85.1865 68.9968 83.7751 70.9765C83.6126 71.203 82.8783 71.1875 82.5021 71.0354C78.4754 69.4064 74.3766 68.0908 70.055 67.5943C57.7794 66.1856 47.7519 70.7437 39.5572 79.9563C37.7064 82.0383 36.2468 84.4865 34.5464 86.7175C34.2515 87.1054 33.5834 87.5522 33.2132 87.456C31.1849 86.9347 29.1956 86.2521 27.077 85.585Z" fill="white" fill-opacity="0.2"/>
<path d="M79.7063 75.7338C68.0447 86.3643 54.6556 90.184 39.1208 88.6884C40.5292 86.4233 41.6066 84.335 42.997 82.5074C49.0249 74.5857 57.2618 71.9979 66.6152 72.7674C70.2777 73.0684 73.88 74.1358 77.5034 74.8991C78.1685 75.0387 78.7915 75.3801 79.7063 75.7338Z" fill="white" fill-opacity="0.2"/>
<path d="M11.4267 21.4443C16.8377 14.6676 22.0561 8.13595 27.4069 1.43367C32.523 8.077 37.5729 14.6334 42.8153 21.4443H11.4267Z" fill="white" fill-opacity="0.2"/>
<path d="M90 59.4279C89.7592 60.0547 89.4944 60.7497 89.2446 61.4044C85.6002 60.2657 82.1453 59.0307 78.6122 58.1154C68.6569 55.5368 58.6686 54.9256 48.8547 58.7111C37.3165 63.1638 29.7718 71.8395 25.0409 83.3513C24.9085 83.6771 24.764 83.9936 24.5835 84.4094C23.3135 83.7516 22.1127 83.1279 20.5237 82.3025C21.7907 79.6961 22.8591 77.0307 24.3036 74.6104C30.2563 64.6408 38.9747 58.2736 49.7034 54.9411C63.0955 50.7801 76.1565 51.9251 88.6999 58.4629C89.058 58.6491 89.4041 58.8539 89.7472 59.0649C89.8255 59.1114 89.8616 59.2293 89.991 59.4248L90 59.4279Z" fill="white" fill-opacity="0.2"/>
</svg>
