<svg width="16" height="30" viewBox="0 0 16 30" fill="none" xmlns="http://www.w3.org/2000/svg">
<path d="M8.1432 0.00103479C7.5455 0.0764217 6.93694 0.107534 6.35252 0.239162C5.72826 0.379166 5.09555 0.550283 4.51959 0.819522C1.87523 2.05204 0.138896 3.96782 0.002452 6.99886C-0.051884 8.20146 0.803003 9.1061 1.95372 9.15038C3.05855 9.19346 3.91344 8.35702 4.05954 7.18912C4.11871 6.71047 4.24912 6.18157 4.52321 5.79865C5.45296 4.50032 6.84517 4.03005 8.37865 4.09108C9.88799 4.1521 10.9771 4.96939 11.6376 6.31559C12.0808 7.21784 12.0095 8.09735 11.413 8.91105C11.0459 9.41124 10.6245 9.87074 10.2647 10.3757C9.2106 11.8547 8.13233 13.3206 7.14704 14.8451C6.54572 15.7749 6.24385 16.847 6.22333 17.9659C6.20159 19.0727 7.04803 19.9582 8.15286 20.0348C9.17438 20.1054 10.1742 19.3504 10.2732 18.3045C10.3577 17.4106 10.6873 16.6352 11.1957 15.94C12.3041 14.4227 13.4561 12.9365 14.6019 11.4455C15.4423 10.3518 15.9531 9.13602 15.9966 7.75632C16.1282 3.58491 12.4563 -0.0157179 8.1432 0.00103479Z" fill="white"/>
<path d="M7.77509 29.9994C7.60724 29.9396 7.43939 29.8786 7.27154 29.8199C5.83456 29.3221 4.99652 27.9124 5.24648 26.4129C5.48316 25.0008 6.82716 23.8999 8.2883 23.9202C9.74339 23.9405 11.0331 25.02 11.2697 26.4129C11.5233 27.91 10.6841 29.3209 9.24588 29.8187C9.07803 29.8774 8.91018 29.9384 8.74234 29.9982H7.77509V29.9994Z" fill="white"/>
<path d="M8.1432 0.00103479C12.4563 -0.0157179 16.1282 3.58491 15.9954 7.75632C15.9519 9.13482 15.4411 10.3518 14.6007 11.4455C13.4561 12.9365 12.3041 14.4227 11.1945 15.94C10.6861 16.6352 10.3565 17.4106 10.272 18.3045C10.1742 19.3504 9.17317 20.1054 8.15165 20.0348C7.04561 19.9582 6.20038 19.0727 6.22212 17.9659C6.24385 16.847 6.54572 15.7749 7.14583 14.8451C8.13112 13.3218 9.20939 11.8559 10.2635 10.3757C10.6233 9.87194 11.0447 9.41124 11.4118 8.91105C12.0095 8.09735 12.0795 7.21784 11.6364 6.31559C10.9759 4.96939 9.88557 4.15091 8.37745 4.09108C6.84396 4.03005 5.45175 4.49912 4.522 5.79865C4.24791 6.18157 4.1175 6.71047 4.05834 7.18912C3.91344 8.35582 3.05855 9.19346 1.95251 9.15038C0.803003 9.10491 -0.051884 8.20026 0.00245203 6.99886C0.138896 3.96782 1.87523 2.05204 4.51959 0.818325C5.09555 0.549086 5.72826 0.37797 6.35252 0.237965C6.93694 0.107534 7.5455 0.0764217 8.1432 0.00103479Z" fill="white"/>
</svg>
