<svg width="90" height="90" viewBox="0 0 90 90" fill="none" xmlns="http://www.w3.org/2000/svg">
<g filter="url(#filter0_d_2573_3263)">
<circle cx="45" cy="46" r="40" fill="#39A900"/>
</g>
<path d="M56.7388 40.4927C56.5193 40.4927 56.3769 40.4927 56.2355 40.4927C52.5595 40.4927 48.8835 40.4974 45.2075 40.4815C44.9959 40.4815 44.712 40.3777 44.5854 40.229C42.917 38.2772 41.2714 36.3095 39.6218 34.3437C39.5546 34.2642 39.5091 34.1679 39.422 34.0276C39.6357 34.0164 39.7929 34.0014 39.9501 34.0014C43.4452 34.0005 46.9402 33.9958 50.4342 34.0108C50.6636 34.0117 50.9682 34.1034 51.1106 34.2577C52.9224 36.2169 54.7115 38.1949 56.5045 40.1701C56.5747 40.2477 56.6271 40.3384 56.7388 40.4927Z" fill="white"/>
<path d="M57.0245 48.7896C53.0291 48.0433 49.0911 48.1864 45.153 49.3161C45.1421 49.1123 45.1273 48.9626 45.1273 48.8139C45.1263 46.3992 45.1352 43.9854 45.1184 41.5707C45.1154 41.1639 45.2014 41.0086 45.6801 41.0114C49.2869 41.032 52.8936 41.0227 56.5004 41.0236C56.6616 41.0236 56.8238 41.0236 57.0255 41.0236L57.0245 48.7896Z" fill="white"/>
<path d="M40.7928 44.1699H36.8992V48.0061C35.8133 48.1585 34.765 48.3054 33.6732 48.4578V41.2997H44.8089V48.9394C44.5617 48.8721 44.3362 48.7964 44.1048 48.7505C43.1712 48.5626 42.2406 48.3465 41.2981 48.2165C40.858 48.1557 40.7759 48.0024 40.7838 47.6245C40.8086 46.4892 40.7928 45.3529 40.7928 44.1699Z" fill="white"/>
<path d="M35.1119 57.8624C32.7444 56.0687 31.1086 53.8943 30.3333 51.0831C34.5888 49.2772 38.8799 49.1088 43.4084 50.5322C39.7977 52.2081 37.0009 54.534 35.1119 57.8624Z" fill="white"/>
<path d="M39.2313 59.7953C40.3162 57.3581 41.9015 55.4054 44.2809 54.0867C46.9185 52.625 49.8073 52.2294 52.8039 52.3575C54.6186 52.4351 56.4047 52.7204 58.1571 53.1795C58.4855 53.2656 58.8079 53.3722 59.2499 53.5041C58.7614 54.1784 58.3272 54.7956 57.8634 55.3923C57.81 55.4605 57.5687 55.4559 57.4451 55.41C56.1218 54.919 54.7749 54.5225 53.3547 54.3729C49.3207 53.9483 46.0255 55.3221 43.3325 58.0988C42.7243 58.7263 42.2447 59.4642 41.6859 60.1366C41.589 60.2535 41.3694 60.3882 41.2478 60.3592C40.5812 60.2021 39.9275 59.9963 39.2313 59.7953Z" fill="white"/>
<path d="M56.5263 56.8261C52.6941 60.0302 48.2942 61.1814 43.1891 60.7306C43.652 60.0479 44.006 59.4185 44.4629 58.8677C46.4438 56.4801 49.1506 55.7001 52.2243 55.9321C53.4279 56.0228 54.6117 56.3445 55.8024 56.5745C56.021 56.6166 56.2257 56.7195 56.5263 56.8261Z" fill="white"/>
<path d="M34.0883 40.4633C35.8665 38.4208 37.5813 36.4522 39.3397 34.4321C41.021 36.4344 42.6804 38.4105 44.4032 40.4633H34.0883Z" fill="white"/>
<path d="M59.909 51.9115C59.8299 52.1004 59.7429 52.3099 59.6608 52.5073C58.4632 52.164 57.3278 51.7918 56.1668 51.5159C52.8953 50.7388 49.6129 50.5545 46.3879 51.6955C42.5962 53.0375 40.1168 55.6524 38.5622 59.122C38.5187 59.2202 38.4712 59.3156 38.4119 59.4409C37.9945 59.2427 37.5999 59.0547 37.0778 58.8059C37.4941 58.0204 37.8452 57.217 38.3199 56.4875C40.2761 53.4827 43.1411 51.5636 46.6668 50.5592C51.0677 49.3051 55.3598 49.6502 59.4818 51.6207C59.5995 51.6768 59.7132 51.7385 59.826 51.8021C59.8517 51.8161 59.8635 51.8517 59.9061 51.9106L59.909 51.9115Z" fill="white"/>
<path d="M21.9178 30.7272C21.5847 31.1052 21.2849 31.4197 21.01 31.762C19.5099 33.6175 18.2887 35.6428 17.3972 37.8672C16.5911 39.886 16.0506 41.9699 15.8218 44.1418C15.6043 46.2032 15.6424 48.254 15.9429 50.3075C16.1807 51.9293 16.6086 53.4961 17.1493 55.0406C17.6908 56.5886 18.4064 58.0444 19.2617 59.4345C20.4814 61.4134 21.9804 63.1643 23.7182 64.704C23.9081 64.8721 23.9969 64.8256 24.1176 64.6453C24.6253 63.8739 25.1382 63.1087 25.651 62.3435C25.7002 62.2689 25.758 62.1998 25.8534 62.07C25.9005 62.2264 25.9322 62.3158 25.9526 62.404C26.3873 64.6235 26.8176 66.8404 27.2593 69.0583C27.3012 69.2717 27.238 69.3495 27.0334 69.3892C24.8347 69.8147 22.6376 70.2473 20.4406 70.6799C20.3531 70.7001 20.2633 70.6947 20.1079 70.7083C20.1869 70.5711 20.2301 70.4868 20.2793 70.4122C20.7806 69.6608 21.2827 68.913 21.784 68.1616C22.0119 67.8228 22.0172 67.8141 21.7137 67.5532C20.1808 66.2303 18.7817 64.7686 17.6011 63.1189C16.8185 62.0281 16.0935 60.883 15.4527 59.7036C14.1176 57.2569 13.2257 54.6372 12.7079 51.8978C12.3435 49.9669 12.1964 48.0193 12.2449 46.0563C12.3349 42.5633 13.0735 39.2291 14.4324 36.0269C15.058 34.5517 15.8062 33.1448 16.6901 31.8144C17.8448 30.0758 19.1519 28.4544 20.6918 27.0433" fill="white"/>
<path d="M66 67.8228C66.4095 67.5294 66.7724 67.2903 67.1172 67.0186C68.996 65.5478 70.6414 63.8489 72.0101 61.8819C73.2494 60.096 74.2445 58.1869 74.9558 56.1221C75.6312 54.1623 76.0551 52.1554 76.2239 50.087C76.3568 48.4532 76.2922 46.8304 76.1126 45.2039C75.9329 43.5737 75.5629 41.9943 75.042 40.4475C74.2984 38.245 73.2315 36.2019 71.8843 34.311C71.737 34.1045 71.64 34.1299 71.482 34.2784C70.8138 34.9159 70.142 35.5463 69.4702 36.1766C69.4056 36.2382 69.3337 36.2925 69.2116 36.3975C69.2008 36.2345 69.19 36.1403 69.19 36.0498C69.2655 33.7893 69.3445 31.5325 69.4128 29.2721C69.42 29.0547 69.499 28.9931 69.7073 29.0004C71.9454 29.0801 74.1835 29.1525 76.4215 29.225C76.5113 29.225 76.5975 29.2503 76.752 29.2721C76.6442 29.388 76.5832 29.4605 76.5185 29.522C75.8611 30.1415 75.2037 30.7573 74.5463 31.3768C74.2481 31.6557 74.2409 31.6629 74.478 31.9853C75.6743 33.6191 76.7089 35.3579 77.4884 37.2307C78.0058 38.4696 78.4548 39.7484 78.814 41.0416C79.5648 43.7259 79.8451 46.479 79.7337 49.2647C79.6547 51.2281 79.3601 53.1589 78.8715 55.0607C77.9986 58.4441 76.5293 61.5269 74.4852 64.3415C73.544 65.6384 72.4986 66.8411 71.3383 67.9387C69.8223 69.3732 68.1842 70.6592 66.3664 71.688" fill="white"/>
<path d="M26.1229 17.7666L26.7143 19.0673L24.8921 20.1743L27.2418 25.3401L25.7792 26.2257L23.4296 21.0598L21.5914 22.1668L21 20.8661L26.1229 17.7666Z" fill="white"/>
<path d="M29.1278 24.2975L27.3855 19.1408L28.7282 18.532L29.1677 19.6205C29.1517 19.187 29.2157 18.8087 29.3675 18.4951C29.5194 18.1815 29.7671 17.9508 30.1108 17.794C30.2227 17.7479 30.3266 17.711 30.4145 17.6925C30.5024 17.6741 30.5743 17.6741 30.6382 17.6925L30.9739 19.2054C30.902 19.2054 30.8221 19.2146 30.7262 19.2423C30.6303 19.27 30.5104 19.3069 30.3825 19.3715C30.2067 19.4545 30.0548 19.5744 29.927 19.7312C29.7991 19.888 29.7272 20.0818 29.6952 20.2939C29.6632 20.5153 29.6952 20.7552 29.7831 21.0227L30.6622 23.6241L29.1437 24.3067L29.1278 24.2975Z" fill="white"/>
<path d="M34.5706 18.5049C34.5146 18.2558 34.4107 18.0713 34.2509 17.9699C34.099 17.8592 33.9152 17.8407 33.7154 17.8961C33.5156 17.9606 33.3478 18.0713 33.2279 18.2282C33.108 18.385 33.0601 18.6248 33.0681 18.9477L31.6535 18.9846C31.6215 18.4403 31.7574 17.9606 32.0611 17.5455C32.3648 17.1304 32.8523 16.8168 33.5236 16.6138C33.9712 16.4755 34.3788 16.4386 34.7304 16.4939C35.0821 16.5493 35.3778 16.7061 35.6175 16.9551C35.8573 17.2042 36.0251 17.5548 36.129 17.9975L36.5766 19.9532C36.6405 20.2299 36.7764 20.3406 37.0001 20.2761C37.112 20.2392 37.1999 20.2023 37.2559 20.1561L37.3997 21.2262C37.2399 21.383 37.0241 21.503 36.7604 21.5768C36.5206 21.6506 36.2968 21.669 36.0891 21.6321C35.8813 21.5952 35.7054 21.5122 35.5616 21.3554C35.4177 21.1985 35.3138 20.9864 35.2499 20.7096L35.2339 20.6451L35.3938 20.5159C35.4657 20.8203 35.4417 21.1063 35.3298 21.3554C35.2179 21.6137 35.0501 21.8258 34.8183 22.0011C34.5866 22.1764 34.3388 22.3055 34.0671 22.3885C33.7554 22.4808 33.4677 22.5085 33.2039 22.4716C32.9402 22.4254 32.7244 22.3147 32.5486 22.1395C32.3728 21.9642 32.2449 21.7059 32.173 21.3923C32.0851 21.0048 32.117 20.6543 32.2609 20.3406C32.4047 20.027 32.6845 19.7502 33.0921 19.5196L34.7544 18.5695L34.9622 19.5381L34.123 20.0178C33.9472 20.1192 33.8193 20.2207 33.7554 20.3314C33.6915 20.4421 33.6675 20.5805 33.7074 20.7373C33.7394 20.8941 33.8193 20.9956 33.9392 21.0417C34.0591 21.0878 34.179 21.0971 34.3148 21.0509C34.4187 21.014 34.5146 20.9679 34.6025 20.9033C34.6905 20.8388 34.7624 20.7558 34.8183 20.6635C34.8743 20.562 34.9142 20.4513 34.9302 20.3222C34.9462 20.193 34.9302 20.0547 34.9062 19.8978L34.5866 18.4865L34.5706 18.5049Z" fill="white"/>
<path d="M37.9273 21.1799L37.3599 15.682L38.8064 15.4882L39.0861 17.3701L38.8863 17.1856C38.9103 16.7797 38.9902 16.4384 39.1261 16.1524C39.262 15.8664 39.4458 15.6358 39.6775 15.4698C39.9093 15.3037 40.1731 15.193 40.4767 15.1561C40.8044 15.11 41.1001 15.1469 41.3639 15.2576C41.6196 15.3683 41.8354 15.562 42.0032 15.8295C42.1711 16.0971 42.2749 16.4476 42.3229 16.8812L42.6985 20.5434L41.0761 20.7648L40.7485 17.6007C40.7085 17.2225 40.6206 16.9642 40.4767 16.835C40.3329 16.7059 40.1651 16.6506 39.9653 16.6782C39.8134 16.6967 39.6775 16.7613 39.5497 16.8627C39.4218 16.9642 39.3339 17.1118 39.2779 17.3055C39.222 17.4992 39.206 17.7483 39.238 18.0619L39.5337 20.977L37.9113 21.1984L37.9273 21.1799Z" fill="white"/>
<path d="M45.6634 20.6539C45.1839 20.6539 44.7364 20.5432 44.3288 20.3587C43.9212 20.1742 43.5855 19.9067 43.3218 19.5562L44.105 18.5322C44.2648 18.7721 44.4726 18.975 44.7364 19.1318C45.0001 19.2979 45.2958 19.3809 45.6235 19.3901C45.8233 19.3901 45.9831 19.3625 46.111 19.2979C46.2389 19.2333 46.3028 19.1318 46.3108 18.9935C46.3108 18.892 46.2788 18.809 46.2149 18.7444C46.1509 18.6798 46.0231 18.6245 45.8313 18.5784L45.1599 18.4123C44.5605 18.2647 44.137 18.0433 43.8892 17.7666C43.6415 17.4898 43.5216 17.1208 43.5216 16.6688C43.5216 16.3644 43.6095 16.0784 43.7773 15.8017C43.9452 15.525 44.1929 15.3036 44.5286 15.1375C44.8642 14.9715 45.2878 14.8884 45.8073 14.8977C46.2948 14.8977 46.7184 14.9991 47.086 15.1652C47.4536 15.3312 47.7493 15.5803 47.9571 15.8939L47.1659 16.8994C47.0141 16.678 46.8223 16.5028 46.5825 16.3644C46.3428 16.2353 46.095 16.1707 45.8552 16.1615C45.7034 16.1615 45.5755 16.1707 45.4636 16.2076C45.3597 16.2353 45.2798 16.2814 45.2239 16.346C45.1759 16.4013 45.144 16.4751 45.144 16.5674C45.144 16.6596 45.1839 16.7518 45.2638 16.8164C45.3438 16.8902 45.4876 16.9548 45.7034 17.0101L46.5745 17.2223C47.062 17.333 47.4137 17.5267 47.6295 17.8035C47.8453 18.0802 47.9491 18.4123 47.9412 18.7905C47.9412 19.1503 47.8453 19.4732 47.6774 19.7591C47.5096 20.0451 47.2538 20.2665 46.9182 20.4233C46.5825 20.5801 46.1669 20.6539 45.6554 20.6447L45.6634 20.6539Z" fill="white"/>
<path d="M52.4564 15.6544L52.3126 16.9828L48.5803 16.4478L48.7242 15.1194L52.4564 15.6452V15.6544ZM51.6493 13.0254C51.913 13.0623 52.1368 13.1268 52.3206 13.2191C52.5124 13.3113 52.6483 13.4036 52.7362 13.4958L52.4485 14.6397C52.3845 14.5751 52.3126 14.529 52.2247 14.4829C52.1368 14.4368 52.0329 14.4091 51.897 14.3906C51.6732 14.363 51.4894 14.3906 51.3296 14.4921C51.1777 14.5936 51.0818 14.7873 51.0499 15.0733L50.9779 15.7836L51.0419 16.1064L50.5224 20.9587L48.908 20.7281L49.5474 14.732C49.5873 14.3814 49.6672 14.0862 49.7871 13.8556C49.907 13.625 50.0748 13.4313 50.2666 13.3021C50.4584 13.1637 50.6742 13.0807 50.914 13.0346C51.1538 12.9885 51.3935 12.9885 51.6493 13.0346V13.0254Z" fill="white"/>
<path d="M54.5505 21.964C54.031 21.8164 53.6155 21.5858 53.2798 21.2629C52.9521 20.94 52.7283 20.5341 52.6085 20.0637C52.4886 19.5932 52.4886 19.0582 52.6085 18.4678C52.7283 17.8774 52.9361 17.4069 53.2318 17.0472C53.5275 16.6874 53.8792 16.4476 54.2948 16.3276C54.7104 16.2077 55.1579 16.2169 55.6374 16.3461C56.1249 16.4844 56.5245 16.7058 56.8203 17.0195C57.1239 17.3331 57.3158 17.7113 57.4197 18.1449C57.5156 18.5785 57.5156 19.0397 57.4197 19.5379C57.3957 19.667 57.3637 19.7961 57.3317 19.9253C57.2998 20.0544 57.2678 20.1559 57.2358 20.2389L53.5435 19.215L53.7433 18.2372L56.7403 19.0674L55.9172 19.1873C56.0051 18.7537 56.0131 18.4124 55.9172 18.1449C55.8292 17.8774 55.6454 17.7021 55.3657 17.6283C55.1659 17.573 54.9821 17.5822 54.8223 17.6468C54.6624 17.7206 54.5186 17.8589 54.3987 18.0619C54.2788 18.2648 54.1829 18.56 54.111 18.9106C54.039 19.2611 54.0151 19.5563 54.055 19.7961C54.087 20.036 54.1749 20.2297 54.3028 20.3681C54.4306 20.5065 54.5985 20.6079 54.8143 20.6633C55.054 20.7278 55.2458 20.7278 55.4137 20.6633C55.5815 20.5987 55.7094 20.4696 55.8213 20.2943L56.9881 21.1337C56.8362 21.4197 56.6284 21.6319 56.3727 21.7887C56.117 21.9455 55.8292 22.0285 55.5096 22.0562C55.1899 22.0839 54.8702 22.0562 54.5505 21.964Z" fill="white"/>
<path d="M57.4834 22.7849L59.1457 17.5913L60.4964 18.1632L60.2007 19.3071C60.4404 18.9658 60.7042 18.7352 60.9999 18.6245C61.2956 18.5138 61.6153 18.523 61.9589 18.6706C62.0708 18.7167 62.1667 18.7721 62.2386 18.8274C62.3106 18.8828 62.3665 18.9381 62.4065 18.9935L61.7911 20.3772C61.7431 20.3218 61.6712 20.2665 61.5833 20.2111C61.4954 20.1558 61.3835 20.1004 61.2556 20.0451C61.0718 19.9713 60.896 19.9436 60.7122 19.9621C60.5284 19.9898 60.3605 20.0635 60.2087 20.2019C60.0568 20.3403 59.9449 20.5432 59.857 20.8108L59.0179 23.4306L57.4914 22.7756L57.4834 22.7849Z" fill="white"/>
<path d="M64.7004 20.2297L62.6704 25.248L61.1919 24.4547L63.2219 19.4364L64.7004 20.2297ZM64.1969 19.2519C63.8932 19.0859 63.7014 18.9106 63.6215 18.7077C63.5415 18.5047 63.5575 18.2649 63.6694 17.9789C63.7893 17.6929 63.9411 17.5177 64.125 17.4623C64.3088 17.407 64.5565 17.4623 64.8602 17.6191C65.1559 17.776 65.3477 17.9604 65.4356 18.1634C65.5236 18.3663 65.5076 18.6154 65.3877 18.9014C65.2758 19.1781 65.124 19.3534 64.9322 19.4087C64.7403 19.4641 64.5006 19.4087 64.1969 19.2519Z" fill="white"/>
<path d="M63.5974 25.7646L65.979 20.9585L67.2258 21.7795L66.7702 22.8588C67.05 22.5728 67.3457 22.3976 67.6574 22.333C67.961 22.2684 68.2807 22.3514 68.6004 22.5636C68.7043 22.6374 68.7922 22.702 68.8562 22.7758C68.9201 22.8404 68.968 22.9049 69 22.9695L68.1928 24.2241C68.1529 24.1595 68.0889 24.0949 68.009 24.0211C67.9291 23.9473 67.8332 23.8735 67.7053 23.7905C67.5375 23.6798 67.3616 23.6152 67.1778 23.606C66.994 23.5968 66.8182 23.6429 66.6504 23.7444C66.4825 23.8551 66.3387 24.0303 66.2108 24.2794L65.012 26.6963L63.5974 25.7646Z" fill="white"/>
<path d="M36.7064 73.5368L32.9981 72.8081L32.7029 74.3301L35.6548 74.9113L35.3688 76.3596L32.4169 75.7784L31.8726 78.5366L30 78.1677L31.4114 71L36.9832 72.0977L36.6972 73.546L36.7064 73.5368Z" fill="white"/>
<path d="M39.6031 74.0443L39.0865 79.5515L37.2139 79.3762L37.7305 73.869L39.6031 74.0443ZM38.7267 73.3155C38.3485 73.2786 38.0718 73.1864 37.915 73.0203C37.7581 72.8635 37.6936 72.6237 37.7212 72.3193C37.7489 72.0056 37.8596 71.7842 38.0441 71.6551C38.2286 71.5259 38.5146 71.4798 38.8928 71.5167C39.271 71.5536 39.5385 71.6458 39.7046 71.8119C39.8706 71.9687 39.9352 72.2085 39.9075 72.5222C39.8798 72.8266 39.7691 73.048 39.5754 73.1772C39.3909 73.3063 39.1049 73.3524 38.7267 73.3155Z" fill="white"/>
<path d="M41.0974 79.7357L41.0513 74.2008L42.7302 74.1824L42.8501 76.0827L42.6379 75.8705C42.7117 75.4738 42.8317 75.1417 43.0254 74.8742C43.2191 74.6067 43.4497 74.4038 43.7265 74.2654C44.0124 74.127 44.3261 74.0532 44.6858 74.0532C45.0733 74.0532 45.4054 74.1178 45.6913 74.2654C45.9773 74.413 46.1987 74.6252 46.3647 74.9111C46.5308 75.1971 46.6138 75.5569 46.6138 75.9904L46.6507 79.6803L44.7689 79.6988L44.7412 76.507C44.7412 76.1196 44.6582 75.8613 44.5106 75.7137C44.363 75.5661 44.1692 75.4923 43.9479 75.5015C43.7726 75.5015 43.6065 75.5476 43.4497 75.6307C43.2929 75.7137 43.173 75.8521 43.0899 76.0366C43.0069 76.221 42.9608 76.4701 42.97 76.7838L42.9977 79.7172L41.1158 79.7357H41.0974Z" fill="white"/>
<path d="M50.6634 73.5274C51.2169 73.4444 51.6874 73.4536 52.0841 73.5643C52.4715 73.6658 52.7944 73.8318 53.0434 74.0624C53.2925 74.2931 53.4586 74.5513 53.5508 74.8465L51.918 75.6675C51.8165 75.3631 51.6966 75.1417 51.5398 75.0034C51.383 74.865 51.1708 74.8189 50.9217 74.8558C50.6819 74.8927 50.4974 74.9665 50.359 75.0956C50.2207 75.2248 50.1192 75.4093 50.0731 75.6491C50.0269 75.8889 50.0269 76.1934 50.0731 76.5439C50.1284 76.9037 50.2114 77.1896 50.3314 77.3926C50.4513 77.6047 50.5989 77.7431 50.7741 77.8169C50.9494 77.8907 51.1431 77.9092 51.3645 77.8815C51.549 77.8538 51.6966 77.7985 51.8073 77.7062C51.918 77.6232 52.001 77.5033 52.0656 77.3649C52.1302 77.2173 52.1579 77.0513 52.1486 76.8575L53.9013 77.1527C53.9013 77.4848 53.7999 77.7892 53.6154 78.0752C53.4309 78.3612 53.1634 78.601 52.822 78.804C52.4807 79.0069 52.0656 79.1361 51.5675 79.2099C50.9679 79.2929 50.4328 79.2652 49.9531 79.0992C49.4735 78.9423 49.086 78.6656 48.7816 78.2782C48.4772 77.8907 48.2835 77.3926 48.2004 76.793C48.1174 76.1934 48.1635 75.6675 48.3388 75.1971C48.5233 74.7358 48.8093 74.3576 49.2152 74.0717C49.621 73.7857 50.1007 73.6012 50.6727 73.5182L50.6634 73.5274Z" fill="white"/>
<path d="M57.9511 74.0994C57.8773 73.8503 57.7573 73.6751 57.5729 73.5644C57.3884 73.4537 57.1854 73.4352 56.9548 73.4998C56.7242 73.5644 56.5397 73.6843 56.4013 73.8503C56.2629 74.0164 56.2076 74.2562 56.2353 74.5699L54.6025 74.6437C54.5564 74.0994 54.7039 73.6197 55.0453 73.1954C55.3866 72.771 55.9401 72.4482 56.7149 72.2268C57.2315 72.0792 57.6928 72.033 58.1079 72.0792C58.5138 72.1253 58.8643 72.2729 59.1411 72.522C59.4178 72.771 59.6208 73.1123 59.7499 73.5551L60.3034 75.5016C60.3772 75.7783 60.5432 75.8798 60.7923 75.8152C60.9214 75.7783 61.0137 75.7322 61.0875 75.6861L61.272 76.7469C61.0875 76.9037 60.8384 77.0329 60.534 77.1159C60.2573 77.1897 59.999 77.2174 59.7591 77.1897C59.5193 77.162 59.3163 77.0698 59.1411 76.9222C58.9658 76.7746 58.8459 76.5624 58.7628 76.2857L58.7444 76.2211L58.9289 76.0919C59.0119 76.3964 58.9935 76.6823 58.8735 76.9406C58.7536 77.1989 58.5599 77.4203 58.3016 77.5956C58.0433 77.7801 57.7573 77.9092 57.4437 78.0015C57.0839 78.1029 56.7518 78.1398 56.4474 78.1029C56.143 78.066 55.8939 77.9554 55.6818 77.7801C55.4788 77.6048 55.3312 77.3557 55.239 77.0421C55.1283 76.6547 55.156 76.3041 55.3128 75.9905C55.4696 75.6768 55.7832 75.3909 56.2537 75.151L58.1448 74.164L58.4031 75.1233L57.4437 75.6215C57.2408 75.723 57.1024 75.8337 57.0194 75.9444C56.9363 76.055 56.9271 76.1934 56.9732 76.3595C57.0194 76.5163 57.1024 76.6178 57.2408 76.6639C57.3791 76.71 57.5175 76.71 57.6743 76.6639C57.7942 76.627 57.9049 76.5809 58.0064 76.5163C58.1079 76.4517 58.1909 76.3687 58.2555 76.2672C58.3201 76.1657 58.3662 76.055 58.3754 75.9259C58.3939 75.7968 58.3754 75.6584 58.3385 75.5016L57.9418 74.0994H57.9511Z" fill="white"/>
<defs>
<filter id="filter0_d_2573_3263" x="0.333333" y="0.666666" width="89.3333" height="89.3333" filterUnits="userSpaceOnUse" color-interpolation-filters="sRGB">
<feFlood flood-opacity="0" result="BackgroundImageFix"/>
<feColorMatrix in="SourceAlpha" type="matrix" values="0 0 0 0 0 0 0 0 0 0 0 0 0 0 0 0 0 0 127 0" result="hardAlpha"/>
<feOffset dy="-0.666667"/>
<feGaussianBlur stdDeviation="2.33333"/>
<feComposite in2="hardAlpha" operator="out"/>
<feColorMatrix type="matrix" values="0 0 0 0 0 0 0 0 0 0 0 0 0 0 0 0 0 0 0.25 0"/>
<feBlend mode="normal" in2="BackgroundImageFix" result="effect1_dropShadow_2573_3263"/>
<feBlend mode="normal" in="SourceGraphic" in2="effect1_dropShadow_2573_3263" result="shape"/>
</filter>
</defs>
</svg>
