<svg width="24" height="34" viewBox="0 0 24 34" fill="none" xmlns="http://www.w3.org/2000/svg">
<path d="M15.9206 2.52174C15.3232 2.44397 14.7264 2.32062 14.1277 2.30063C13.4883 2.27869 12.8329 2.28473 12.2077 2.40003C9.33796 2.92591 7.17464 4.34194 6.27829 7.24062C5.92246 8.39066 6.5216 9.48164 7.62397 9.81465C8.68223 10.1349 9.72041 9.5411 10.1563 8.44779C10.3342 7.99953 10.5938 7.5206 10.9556 7.21917C12.1827 6.19724 13.6485 6.09324 15.117 6.53898C16.5622 6.97863 17.4101 8.04415 17.7097 9.5134C17.9111 10.4982 17.6203 11.3314 16.8379 11.9684C16.3566 12.3598 15.8329 12.6982 15.3574 13.0961C13.9644 14.2615 12.5513 15.4081 11.2135 16.6349C10.3971 17.383 9.83465 18.3444 9.53265 19.4219C9.23251 20.4875 9.8283 21.5578 10.8781 21.9106C11.8488 22.2365 13.0067 21.7579 13.3662 20.7708C13.6734 19.9272 14.1879 19.2599 14.8552 18.7153C16.3104 17.5266 17.7999 16.3789 19.2847 15.225C20.3737 14.3786 21.1746 13.3309 21.5645 12.0067C22.7438 8.00332 20.0985 3.59313 15.9206 2.52174Z" fill="#FDC300"/>
<path d="M7.99975 31.458C7.85241 31.3578 7.70537 31.2564 7.55774 31.1573C6.29272 30.3132 5.83724 28.7377 6.45724 27.3498C7.04235 26.043 8.62054 25.3165 10.0293 25.7046C11.4323 26.0912 12.4081 27.461 12.2859 28.8686C12.1537 30.3812 10.9858 31.5349 9.46858 31.654C9.29137 31.6684 9.11355 31.6852 8.93604 31.7007L8.00005 31.4568L7.99975 31.458Z" fill="#FDC300"/>
<path d="M15.9206 2.52174C20.0985 3.59313 22.7438 8.00332 21.5634 12.0064C21.1737 13.3294 20.3726 14.3783 19.2835 15.2247C17.7999 16.3789 16.3104 17.5266 14.854 18.715C14.1868 19.2596 13.6723 19.9268 13.3651 20.7705C13.0067 21.7579 11.8477 22.2362 10.8769 21.9103C9.82596 21.5572 9.23134 20.4872 9.53148 19.4216C9.83465 18.3444 10.3971 17.383 11.2123 16.6346C12.5499 15.409 13.9629 14.2624 15.3562 13.0958C15.8315 12.6991 16.3554 12.3595 16.8368 11.9681C17.6203 11.3314 17.9099 10.4979 17.7086 9.51309C17.4089 8.04385 16.5602 6.97687 15.1159 6.53867C13.6473 6.09293 12.1818 6.19578 10.9544 7.21887C10.5926 7.52029 10.3331 7.99922 10.1551 8.44748C9.72071 9.53994 8.68223 10.1349 7.6228 9.81435C6.5219 9.48048 5.92276 8.3895 6.27829 7.24062C7.17464 4.34194 9.33796 2.92591 12.208 2.39887C12.8332 2.28357 13.4886 2.27753 14.128 2.29947C14.7264 2.32062 15.3232 2.44397 15.9206 2.52174Z" fill="#FDC300"/>
</svg>
