<svg width="16" height="20" viewBox="0 0 16 20" fill="none" xmlns="http://www.w3.org/2000/svg">
<path d="M11 3L13 3C14.1046 3 15 3.89543 15 5L15 17C15 18.1046 14.1046 19 13 19H3C1.89543 19 0.999999 18.1046 0.999999 17L0.999999 5C0.999999 3.89543 1.89543 3 3 3L5 3M11 3V3C11 1.89543 10.1046 1 9 1H7C5.89543 1 5 1.89543 5 3V3M11 3V3C11 3.82843 10.3284 4.5 9.5 4.5H6.5C5.67157 4.5 5 3.82843 5 3V3" stroke="white" stroke-width="2" stroke-linecap="round" stroke-linejoin="round"/>
<path d="M5.00045 9H11M5.00045 12H11M5 15H11" stroke="white" stroke-width="1.5" stroke-linecap="round" stroke-linejoin="round"/>
</svg>
