<svg width="21" height="20" viewBox="0 0 21 20" fill="none" xmlns="http://www.w3.org/2000/svg">
<path d="M15 6V2C15 1.44772 14.5523 1 14 1H9H3C1.89543 1 1 1.89543 1 3V17C1 18.1046 1.89543 19 3 19H13C14.1046 19 15 18.1046 15 17V14.5" stroke="white" stroke-width="2" stroke-linecap="round" stroke-linejoin="round"/>
<path d="M13.0359 12.4997C11.9511 11.4149 11.9511 9.65611 13.0359 8.57133M11.4644 14.071C9.51185 12.1184 9.51185 8.9526 11.4644 7M16.9641 12.4997C18.0489 11.4149 18.0489 9.65611 16.9641 8.57133M18.5356 14.071C20.4881 12.1184 20.4881 8.9526 18.5356 7M15.5556 10.5355C15.5556 10.8423 15.3068 11.0911 15 11.0911C14.6932 11.0911 14.4445 10.8423 14.4445 10.5355C14.4445 10.2287 14.6932 9.97997 15 9.97997C15.3068 9.97997 15.5556 10.2287 15.5556 10.5355Z" stroke="white" stroke-width="1.1111" stroke-linecap="round" stroke-linejoin="round"/>
</svg>
