<svg width="83" height="55" viewBox="0 0 83 55" fill="none" xmlns="http://www.w3.org/2000/svg">
<path d="M41.5 35.754C39.2175 35.754 37.2642 34.9451 35.6402 33.3273C34.0134 31.7123 33.2 29.7698 33.2 27.5C33.2 25.2302 34.0134 23.2863 35.6402 21.6686C37.2642 20.0535 39.2175 19.246 41.5 19.246C43.7825 19.246 45.7372 20.0535 47.364 21.6686C48.988 23.2863 49.8 25.2302 49.8 27.5C49.8 29.7698 48.988 31.7123 47.364 33.3273C45.7372 34.9451 43.7825 35.754 41.5 35.754ZM9.3375 53.6032C6.4325 50.0265 4.15 46.0192 2.49 41.5813C0.83 37.1461 0 32.4524 0 27.5C0 22.4788 0.83 17.7672 2.49 13.3651C4.15 8.96296 6.4325 4.97355 9.3375 1.39683C10.0983 0.502647 11.0501 0.0555556 12.1927 0.0555556C13.3326 0.0555556 14.3175 0.468255 15.1475 1.29365C15.9083 2.05027 16.3233 2.99672 16.3925 4.13302C16.4617 5.26656 16.1158 6.31482 15.355 7.27778C13.1417 10.0979 11.4125 13.211 10.1675 16.6171C8.9225 20.0205 8.3 23.6481 8.3 27.5C8.3 31.3519 8.9059 34.9795 10.1177 38.3829C11.3267 41.789 13.0379 44.9021 15.2513 47.7222C16.0121 48.6852 16.3759 49.7348 16.3427 50.8711C16.3067 52.0047 15.8738 52.9841 15.0438 53.8095C14.2137 54.6349 13.2454 55.0311 12.1388 54.9981C11.0321 54.9623 10.0983 54.4974 9.3375 53.6032ZM21.165 41.8413C19.7125 39.7778 18.5879 37.5423 17.7911 35.1349C16.997 32.7275 16.6 30.1825 16.6 27.5C16.6 24.8175 16.997 22.2381 17.7911 19.7619C18.5879 17.2857 19.7125 15.0503 21.165 13.0556C21.7875 12.1614 22.6701 11.6964 23.8127 11.6606C24.9526 11.6276 25.9721 12.0582 26.8713 12.9524C27.6321 13.709 28.0291 14.6541 28.0623 15.7876C28.0983 16.9239 27.805 18.0079 27.1825 19.0397C26.4217 20.2778 25.8504 21.6012 25.4686 23.0098C25.0895 24.4213 24.9 25.918 24.9 27.5C24.9 29.082 25.0895 30.5774 25.4686 31.986C25.8504 33.3975 26.4217 34.7222 27.1825 35.9603C27.805 36.9921 28.0817 38.0926 28.0125 39.2619C27.9433 40.4312 27.5283 41.3942 26.7675 42.1508C25.9375 42.9762 24.9526 43.3545 23.8127 43.2857C22.6701 43.2169 21.7875 42.7355 21.165 41.8413ZM56.1287 42.0476C55.3679 41.291 54.9709 40.3446 54.9377 39.2083C54.9017 38.0747 55.195 36.9921 55.8175 35.9603C56.5783 34.7222 57.1497 33.3975 57.5315 31.986C57.9105 30.5774 58.1 29.082 58.1 27.5C58.1 25.918 57.9105 24.4213 57.5315 23.0098C57.1497 21.6012 56.5783 20.2778 55.8175 19.0397C55.195 18.0079 54.9183 16.9074 54.9875 15.7381C55.0567 14.5688 55.4717 13.6058 56.2325 12.8492C57.0625 12.0238 58.0488 11.6276 59.1915 11.6606C60.3313 11.6964 61.2125 12.1614 61.835 13.0556C63.2875 15.0503 64.4108 17.2857 65.2048 19.7619C66.0016 22.2381 66.4 24.8175 66.4 27.5C66.4 30.1825 66.0016 32.7275 65.2048 35.1349C64.4108 37.5423 63.2875 39.7778 61.835 41.8413C61.2125 42.7355 60.3133 43.1991 59.1375 43.2321C57.9617 43.2678 56.9587 42.873 56.1287 42.0476ZM67.9563 53.8095C67.1954 53.0529 66.7624 52.0899 66.6573 50.9206C66.5549 49.7513 66.8842 48.6852 67.645 47.7222C69.8583 44.9021 71.5875 41.789 72.8325 38.3829C74.0775 34.9795 74.7 31.3519 74.7 27.5C74.7 23.6481 74.0941 20.0205 72.8823 16.6171C71.6733 13.211 69.9621 10.0979 67.7488 7.27778C66.9879 6.31482 66.6241 5.26656 66.6573 4.13302C66.6933 2.99672 67.1263 2.01587 67.9563 1.19048C68.7863 0.36508 69.7546 -0.0311111 70.8613 0.00190476C71.9679 0.037672 72.9017 0.502647 73.6625 1.39683C76.5675 4.97355 78.85 8.96296 80.51 13.3651C82.17 17.7672 83 22.4788 83 27.5C83 32.4524 82.17 37.1461 80.51 41.5813C78.85 46.0192 76.5675 50.0265 73.6625 53.6032C72.9017 54.4974 71.9679 54.9623 70.8613 54.9981C69.7546 55.0311 68.7863 54.6349 67.9563 53.8095Z" fill="white" fill-opacity="0.2"/>
</svg>
