<svg width="74" height="95" viewBox="0 0 74 95" fill="none" xmlns="http://www.w3.org/2000/svg">
<path d="M44.9629 72.479C51.9579 72.9239 59.3901 73.9127 65.948 76.4837C70.5627 78.313 77.8978 82.5648 71.4857 87.7067C63.2277 94.3812 41.1254 95.4194 30.8272 94.8756C23.6378 94.4801 5.37309 92.3047 0.904055 86.0751C-3.03064 80.5872 6.92754 76.7309 10.6679 75.5443C16.5943 73.6655 23.0549 72.825 29.2241 72.479L29.0784 71.8362C24.8037 64.964 20.4318 58.0917 16.3028 51.1206C13.0482 45.5832 9.6964 40.6886 8.62771 34.113C4.98448 10.9253 28.2526 -7.12052 49.2862 2.76761C64.1992 9.78819 70.3198 28.3284 62.5476 43.1606C57.4956 52.9004 50.7435 61.9481 45.3515 71.4407C45.2544 71.6385 44.7686 72.3306 44.9143 72.479H44.9629ZM27.9612 20.4179C22.132 26.6475 23.6864 36.8322 31.1672 40.8369C41.1254 46.1765 52.3951 36.7828 49.3348 25.7575C46.7117 16.2649 34.6647 13.249 27.9612 20.4179ZM42.777 75.5937L37.0935 84.493L31.5072 75.742L31.0215 75.5443C26.261 76.0387 21.3062 76.5825 16.8371 78.313C14.3597 79.2523 9.30779 81.4772 13.0482 84.3942C18.1487 88.3494 31.9444 89.3877 38.3079 89.3382C43.4085 89.2888 58.6615 87.8056 61.8675 83.5537C63.5677 81.2794 60.2645 79.6479 58.5643 78.8568C53.7553 76.6814 48.0232 75.9892 42.8256 75.5937H42.777Z" fill="white" fill-opacity="0.2"/>
</svg>
